<svg xmlns="http://www.w3.org/2000/svg" xmlns:xlink="http://www.w3.org/1999/xlink" version="1.1" class="marks" width="683" height="350" viewBox="0 0 683 350"><rect width="683" height="350" fill="#ffffff"/><g fill="none" stroke-miterlimit="10" transform="translate(34,2)"><g class="mark-group role-frame root" role="graphics-object" aria-roledescription="group mark container"><g transform="translate(0,0)"><path class="background" aria-hidden="true" d="M0,0h648v249h-648Z" stroke-width="0"/><g><g class="mark-group role-axis" aria-hidden="true"><g transform="translate(0.5,0.5)"><path class="background" aria-hidden="true" d="M0,0h0v0h0Z" pointer-events="none"/><g><g class="mark-rule role-axis-grid" pointer-events="none"><line transform="translate(0,249)" x2="648" y2="0" stroke="#e6eaf1" stroke-width="1" opacity="1"/><line transform="translate(0,221)" x2="648" y2="0" stroke="#e6eaf1" stroke-width="1" opacity="1"/><line transform="translate(0,194)" x2="648" y2="0" stroke="#e6eaf1" stroke-width="1" opacity="1"/><line transform="translate(0,166)" x2="648" y2="0" stroke="#e6eaf1" stroke-width="1" opacity="1"/><line transform="translate(0,138)" x2="648" y2="0" stroke="#e6eaf1" stroke-width="1" opacity="1"/><line transform="translate(0,111)" x2="648" y2="0" stroke="#e6eaf1" stroke-width="1" opacity="1"/><line transform="translate(0,83)" x2="648" y2="0" stroke="#e6eaf1" stroke-width="1" opacity="1"/><line transform="translate(0,55)" x2="648" y2="0" stroke="#e6eaf1" stroke-width="1" opacity="1"/><line transform="translate(0,28)" x2="648" y2="0" stroke="#e6eaf1" stroke-width="1" opacity="1"/><line transform="translate(0,0)" x2="648" y2="0" stroke="#e6eaf1" stroke-width="1" opacity="1"/></g></g><path class="foreground" aria-hidden="true" d="" pointer-events="none" display="none"/></g></g><g class="mark-group role-axis" role="graphics-symbol" aria-roledescription="axis" aria-label="X-axis for a linear scale with values from 0 to 100"><g transform="translate(0.5,249.5)"><path class="background" aria-hidden="true" d="M0,0h0v0h0Z" pointer-events="none"/><g><g class="mark-text role-axis-label" pointer-events="none"><text text-anchor="start" transform="translate(-1,25)" font-family="&quot;Source Sans Pro&quot;, sans-serif" font-size="12px" font-style="normal" font-weight="400" fill="#808495" opacity="1">0</text><text text-anchor="middle" transform="translate(32.4,25)" font-family="&quot;Source Sans Pro&quot;, sans-serif" font-size="12px" font-style="normal" font-weight="400" fill="#808495" opacity="1">5</text><text text-anchor="middle" transform="translate(64.8,25)" font-family="&quot;Source Sans Pro&quot;, sans-serif" font-size="12px" font-style="normal" font-weight="400" fill="#808495" opacity="1">10</text><text text-anchor="middle" transform="translate(97.2,25)" font-family="&quot;Source Sans Pro&quot;, sans-serif" font-size="12px" font-style="normal" font-weight="400" fill="#808495" opacity="1">15</text><text text-anchor="middle" transform="translate(129.6,25)" font-family="&quot;Source Sans Pro&quot;, sans-serif" font-size="12px" font-style="normal" font-weight="400" fill="#808495" opacity="1">20</text><text text-anchor="middle" transform="translate(162,25)" font-family="&quot;Source Sans Pro&quot;, sans-serif" font-size="12px" font-style="normal" font-weight="400" fill="#808495" opacity="1">25</text><text text-anchor="middle" transform="translate(194.4,25)" font-family="&quot;Source Sans Pro&quot;, sans-serif" font-size="12px" font-style="normal" font-weight="400" fill="#808495" opacity="1">30</text><text text-anchor="middle" transform="translate(226.79999999999998,25)" font-family="&quot;Source Sans Pro&quot;, sans-serif" font-size="12px" font-style="normal" font-weight="400" fill="#808495" opacity="1">35</text><text text-anchor="middle" transform="translate(259.2,25)" font-family="&quot;Source Sans Pro&quot;, sans-serif" font-size="12px" font-style="normal" font-weight="400" fill="#808495" opacity="1">40</text><text text-anchor="middle" transform="translate(291.6,25)" font-family="&quot;Source Sans Pro&quot;, sans-serif" font-size="12px" font-style="normal" font-weight="400" fill="#808495" opacity="1">45</text><text text-anchor="middle" transform="translate(324,25)" font-family="&quot;Source Sans Pro&quot;, sans-serif" font-size="12px" font-style="normal" font-weight="400" fill="#808495" opacity="1">50</text><text text-anchor="middle" transform="translate(356.40000000000003,25)" font-family="&quot;Source Sans Pro&quot;, sans-serif" font-size="12px" font-style="normal" font-weight="400" fill="#808495" opacity="1">55</text><text text-anchor="middle" transform="translate(388.8,25)" font-family="&quot;Source Sans Pro&quot;, sans-serif" font-size="12px" font-style="normal" font-weight="400" fill="#808495" opacity="1">60</text><text text-anchor="middle" transform="translate(421.2,25)" font-family="&quot;Source Sans Pro&quot;, sans-serif" font-size="12px" font-style="normal" font-weight="400" fill="#808495" opacity="1">65</text><text text-anchor="middle" transform="translate(453.59999999999997,25)" font-family="&quot;Source Sans Pro&quot;, sans-serif" font-size="12px" font-style="normal" font-weight="400" fill="#808495" opacity="1">70</text><text text-anchor="middle" transform="translate(486,25)" font-family="&quot;Source Sans Pro&quot;, sans-serif" font-size="12px" font-style="normal" font-weight="400" fill="#808495" opacity="1">75</text><text text-anchor="middle" transform="translate(518.4,25)" font-family="&quot;Source Sans Pro&quot;, sans-serif" font-size="12px" font-style="normal" font-weight="400" fill="#808495" opacity="1">80</text><text text-anchor="middle" transform="translate(550.8,25)" font-family="&quot;Source Sans Pro&quot;, sans-serif" font-size="12px" font-style="normal" font-weight="400" fill="#808495" opacity="1">85</text><text text-anchor="middle" transform="translate(583.2,25)" font-family="&quot;Source Sans Pro&quot;, sans-serif" font-size="12px" font-style="normal" font-weight="400" fill="#808495" opacity="1">90</text><text text-anchor="middle" transform="translate(615.6,25)" font-family="&quot;Source Sans Pro&quot;, sans-serif" font-size="12px" font-style="normal" font-weight="400" fill="#808495" opacity="1">95</text><text text-anchor="end" transform="translate(649,25)" font-family="&quot;Source Sans Pro&quot;, sans-serif" font-size="12px" font-style="normal" font-weight="400" fill="#808495" opacity="1">100</text></g></g><path class="foreground" aria-hidden="true" d="" pointer-events="none" display="none"/></g></g><g class="mark-group role-axis" role="graphics-symbol" aria-roledescription="axis" aria-label="Y-axis for a linear scale with values from 0 to 180"><g transform="translate(0.5,0.5)"><path class="background" aria-hidden="true" d="M0,0h0v0h0Z" pointer-events="none"/><g><g class="mark-text role-axis-label" pointer-events="none"><text text-anchor="end" transform="translate(-16,247)" font-family="&quot;Source Sans Pro&quot;, sans-serif" font-size="12px" font-style="normal" font-weight="400" fill="#808495" opacity="1">0</text><text text-anchor="end" transform="translate(-16,225.33333333333331)" font-family="&quot;Source Sans Pro&quot;, sans-serif" font-size="12px" font-style="normal" font-weight="400" fill="#808495" opacity="1">20</text><text text-anchor="end" transform="translate(-16,197.66666666666666)" font-family="&quot;Source Sans Pro&quot;, sans-serif" font-size="12px" font-style="normal" font-weight="400" fill="#808495" opacity="1">40</text><text text-anchor="end" transform="translate(-16,170.00000000000003)" font-family="&quot;Source Sans Pro&quot;, sans-serif" font-size="12px" font-style="normal" font-weight="400" fill="#808495" opacity="1">60</text><text text-anchor="end" transform="translate(-16,142.33333333333334)" font-family="&quot;Source Sans Pro&quot;, sans-serif" font-size="12px" font-style="normal" font-weight="400" fill="#808495" opacity="1">80</text><text text-anchor="end" transform="translate(-16,114.66666666666666)" font-family="&quot;Source Sans Pro&quot;, sans-serif" font-size="12px" font-style="normal" font-weight="400" fill="#808495" opacity="1">100</text><text text-anchor="end" transform="translate(-16,87.00000000000001)" font-family="&quot;Source Sans Pro&quot;, sans-serif" font-size="12px" font-style="normal" font-weight="400" fill="#808495" opacity="1">120</text><text text-anchor="end" transform="translate(-16,59.33333333333333)" font-family="&quot;Source Sans Pro&quot;, sans-serif" font-size="12px" font-style="normal" font-weight="400" fill="#808495" opacity="1">140</text><text text-anchor="end" transform="translate(-16,31.66666666666668)" font-family="&quot;Source Sans Pro&quot;, sans-serif" font-size="12px" font-style="normal" font-weight="400" fill="#808495" opacity="1">160</text><text text-anchor="end" transform="translate(-16,8)" font-family="&quot;Source Sans Pro&quot;, sans-serif" font-size="12px" font-style="normal" font-weight="400" fill="#808495" opacity="1">180</text></g></g><path class="foreground" aria-hidden="true" d="" pointer-events="none" display="none"/></g></g><g class="mark-group role-scope pathgroup" role="graphics-object" aria-roledescription="group mark container"><g transform="translate(0,0)"><path class="background" aria-hidden="true" d="M0,0h648v249h-648Z"/><g><g class="mark-line role-mark marks" clip-path="url(#clip5)" role="graphics-object" aria-roledescription="line mark container"><path aria-label="Epoch: 1; value: 50.9556647592;  : Total; label: Total" role="graphics-symbol" aria-roledescription="line mark" d="M6.48,178.511L12.96,190.954L19.44,198.168L25.92,203.312L32.4,207.199L38.88,210.56L45.36,213.507L51.84,216.302L58.32,218.369L64.8,220.586L71.28,222.498L77.76,224.013L84.24,225.735L90.72,226.823L97.2,228.147L103.68,229.364L110.16,230.303L116.64,231.264L123.12,232.192L129.6,233.124L136.08,233.826L142.56,234.575L149.04,235.286L155.52,235.939L162,236.026L168.48,236.975L174.96,237.541L181.44,238.023L187.92,238.289L194.4,238.518L200.88,239.143L207.36,239.641L213.84,239.816L220.32,239.952L226.8,240.46L233.28,240.495L239.76,241.045L246.24,241.135L252.72,241.552L259.2,241.701L265.68,241.65L272.16,241.897L278.64,242.286L285.12,242.231L291.6,242.62L298.08,242.225L304.56,243.037L311.04,242.764L317.52,242.794L324,243.209L330.48,243.057L336.96,243.219L343.44,243.429L349.92,243.576L356.4,243.281L362.88,243.86L369.36,243.559L375.84,243.837L382.32,244.043L388.8,243.782L395.28,243.92L401.76,244.012L408.24,244.163L414.72,244.22L421.2,244.147L427.68,244.168L434.16,244.487L440.64,244.263L447.12,244.358L453.6,244.333L460.08,244.588L466.56,244.446L473.04,244.834L479.52,244.454L486,244.689L492.48,244.463L498.96,244.861L505.44,244.873L511.92,244.857L518.4,244.562L524.88,244.852L531.36,244.95L537.84,244.939L544.32,245.046L550.8,244.91L557.28,244.948L563.76,245.156L570.24,245.298L576.72,244.944L583.2,245.201L589.68,245.054L596.16,245.1L602.64,245.041L609.12,245.458L615.6,245.262L622.08,245.354L628.56,245.284L635.04,245.174L641.52,245.36L648,245.497" stroke="#ff8700" stroke-width="2"/></g></g><path class="foreground" aria-hidden="true" d="" display="none"/></g><g transform="translate(0,0)"><path class="background" aria-hidden="true" d="M0,0h648v249h-648Z"/><g><g class="mark-line role-mark marks" clip-path="url(#clip6)" role="graphics-object" aria-roledescription="line mark container"><path aria-label="Epoch: 1; value: 46.2465219679;  : Kl; label: Kl" role="graphics-symbol" aria-roledescription="line mark" d="M6.48,185.026L12.96,153.957L19.44,129.24L25.92,111.257L32.4,94.1L38.88,76.895L45.36,62.767L51.84,54.583L58.32,44.801L64.8,35.672L71.28,30.683L77.76,23.246L84.24,23.678L90.72,17.513L97.2,13.742L103.68,15.098L110.16,9.165L116.64,14.435L123.12,12.639L129.6,12.059L136.08,13.852L142.56,15.565L149.04,10.779L155.52,17.866L162,13.151L168.48,12.18L174.96,15.036L181.44,22.254L187.92,18.685L194.4,17.721L200.88,21.465L207.36,23.524L213.84,25.14L220.32,22.537L226.8,22.269L233.28,22.93L239.76,31.493L246.24,27.679L252.72,33.524L259.2,36.626L265.68,29.717L272.16,29.549L278.64,33.03L285.12,36.394L291.6,38.784L298.08,34.662L304.56,45.202L311.04,40.824L317.52,40.449L324,44.033L330.48,42.02L336.96,44.744L343.44,47.453L349.92,47.303L356.4,41.339L362.88,48.728L369.36,47.844L375.84,51.57L382.32,54.985L388.8,49.5L395.28,53.126L401.76,51.622L408.24,53.961L414.72,55.275L421.2,52.461L427.68,55.204L434.16,61.679L440.64,57.86L447.12,61.454L453.6,62.214L460.08,60.21L466.56,54.372L473.04,64.214L479.52,57.788L486,64.572L492.48,57.468L498.96,63.947L505.44,66.433L511.92,67.146L518.4,62.28L524.88,65.111L531.36,68.567L537.84,64.117L544.32,69.293L550.8,64.127L557.28,61.481L563.76,67.421L570.24,72.77L576.72,70.652L583.2,69.508L589.68,69.838L596.16,70.394L602.64,66.625L609.12,73.142L615.6,75.032L622.08,74.408L628.56,72.843L635.04,68.625L641.52,78.424L648,72.068" stroke="#83c9ff" stroke-width="2"/></g></g><path class="foreground" aria-hidden="true" d="" display="none"/></g><g transform="translate(0,0)"><path class="background" aria-hidden="true" d="M0,0h648v249h-648Z"/><g><g class="mark-line role-mark marks" clip-path="url(#clip7)" role="graphics-object" aria-roledescription="line mark container"><path aria-label="Epoch: 1; value: 4.50699365914;  : Topo; label: Topo" role="graphics-symbol" aria-roledescription="line mark" d="M6.48,242.765L12.96,244.271L19.44,245.132L25.92,245.735L32.4,246.202L38.88,246.547L45.36,246.857L51.84,247.11L58.32,247.28L64.8,247.477L71.28,247.622L77.76,247.722L84.24,247.866L90.72,247.903L97.2,248.008L103.68,248.084L110.16,248.101L116.64,248.191L123.12,248.242L129.6,248.315L136.08,248.312L142.56,248.352L149.04,248.427L155.52,248.446L162,248.376L168.48,248.489L174.96,248.486L181.44,248.509L187.92,248.553L194.4,248.524L200.88,248.584L207.36,248.637L213.84,248.633L220.32,248.603L226.8,248.646L233.28,248.613L239.76,248.664L246.24,248.652L252.72,248.714L259.2,248.7L265.68,248.69L272.16,248.7L278.64,248.734L285.12,248.725L291.6,248.755L298.08,248.677L304.56,248.781L311.04,248.747L317.52,248.723L324,248.788L330.48,248.732L336.96,248.758L343.44,248.787L349.92,248.807L356.4,248.774L362.88,248.824L369.36,248.764L375.84,248.77L382.32,248.816L388.8,248.779L395.28,248.815L401.76,248.802L408.24,248.803L414.72,248.816L421.2,248.815L427.68,248.795L434.16,248.841L440.64,248.806L447.12,248.808L453.6,248.798L460.08,248.848L466.56,248.823L473.04,248.867L479.52,248.802L486,248.847L492.48,248.816L498.96,248.85L505.44,248.848L511.92,248.851L518.4,248.8L524.88,248.844L531.36,248.864L537.84,248.854L544.32,248.867L550.8,248.855L557.28,248.846L563.76,248.879L570.24,248.893L576.72,248.828L583.2,248.866L589.68,248.852L596.16,248.847L602.64,248.837L609.12,248.9L615.6,248.862L622.08,248.881L628.56,248.86L635.04,248.856L641.52,248.861L648,248.891" stroke="#7defa1" stroke-width="2"/></g></g><path class="foreground" aria-hidden="true" d="" display="none"/></g><g transform="translate(0,0)"><path class="background" aria-hidden="true" d="M0,0h648v249h-648Z"/><g><g class="mark-line role-mark marks" clip-path="url(#clip8)" role="graphics-object" aria-roledescription="line mark container"><path aria-label="Epoch: 1; value: 0.63663804369;  : Bond; label: Bond" role="graphics-symbol" aria-roledescription="line mark" d="M6.48,248.119L12.96,248.35L19.44,248.369L25.92,248.391L32.4,248.42L38.88,248.456L45.36,248.501L51.84,248.541L58.32,248.585L64.8,248.62L71.28,248.639L77.76,248.66L84.24,248.678L90.72,248.692L97.2,248.709L103.68,248.722L110.16,248.73L116.64,248.745L123.12,248.744L129.6,248.771L136.08,248.776L142.56,248.779L149.04,248.797L155.52,248.801L162,248.804L168.48,248.818L174.96,248.823L181.44,248.825L187.92,248.837L194.4,248.846L200.88,248.853L207.36,248.858L213.84,248.862L220.32,248.875L226.8,248.882L233.28,248.882L239.76,248.887L246.24,248.891L252.72,248.894L259.2,248.894L265.68,248.901L272.16,248.91L278.64,248.913L285.12,248.913L291.6,248.913L298.08,248.926L304.56,248.937L311.04,248.915L317.52,248.936L324,248.943L330.48,248.937L336.96,248.944L343.44,248.939L349.92,248.937L356.4,248.952L362.88,248.942L369.36,248.934L375.84,248.947L382.32,248.946L388.8,248.952L395.28,248.951L401.76,248.949L408.24,248.96L414.72,248.951L421.2,248.955L427.68,248.958L434.16,248.959L440.64,248.958L447.12,248.951L453.6,248.957L460.08,248.96L466.56,248.965L473.04,248.972L479.52,248.971L486,248.967L492.48,248.966L498.96,248.973L505.44,248.965L511.92,248.97L518.4,248.97L524.88,248.968L531.36,248.978L537.84,248.979L544.32,248.97L550.8,248.968L557.28,248.97L563.76,248.963L570.24,248.978L576.72,248.961L583.2,248.977L589.68,248.963L596.16,248.969L602.64,248.973L609.12,248.985L615.6,248.977L622.08,248.968L628.56,248.983L635.04,248.968L641.52,248.977L648,248.976" stroke="#0068c9" stroke-width="2"/></g></g><path class="foreground" aria-hidden="true" d="" display="none"/></g><g transform="translate(0,0)"><path class="background" aria-hidden="true" d="M0,0h648v249h-648Z"/><g><g class="mark-line role-mark marks" clip-path="url(#clip9)" role="graphics-object" aria-roledescription="line mark container"><path aria-label="Epoch: 1; value: 4.49096740142;  : Root; label: Root" role="graphics-symbol" aria-roledescription="line mark" d="M6.48,242.787L12.96,244.339L19.44,245.22L25.92,245.822L32.4,246.261L38.88,246.702L45.36,247.02L51.84,247.375L58.32,247.6L64.8,247.846L71.28,248.039L77.76,248.179L84.24,248.302L90.72,248.396L97.2,248.451L103.68,248.558L110.16,248.582L116.64,248.642L123.12,248.656L129.6,248.656L136.08,248.708L142.56,248.756L149.04,248.734L155.52,248.783L162,248.759L168.48,248.798L174.96,248.831L181.44,248.851L187.92,248.787L194.4,248.812L200.88,248.842L207.36,248.837L213.84,248.845L220.32,248.816L226.8,248.886L233.28,248.854L239.76,248.883L246.24,248.849L252.72,248.895L259.2,248.895L265.68,248.864L272.16,248.867L278.64,248.887L285.12,248.876L291.6,248.899L298.08,248.89L304.56,248.926L311.04,248.881L317.52,248.903L324,248.891L330.48,248.911L336.96,248.905L343.44,248.898L349.92,248.904L356.4,248.896L362.88,248.922L369.36,248.894L375.84,248.936L382.32,248.901L388.8,248.918L395.28,248.913L401.76,248.914L408.24,248.933L414.72,248.917L421.2,248.934L427.68,248.922L434.16,248.926L440.64,248.892L447.12,248.917L453.6,248.925L460.08,248.928L466.56,248.919L473.04,248.933L479.52,248.926L486,248.942L492.48,248.877L498.96,248.914L505.44,248.959L511.92,248.923L518.4,248.936L524.88,248.952L531.36,248.911L537.84,248.931L544.32,248.942L550.8,248.926L557.28,248.925L563.76,248.948L570.24,248.949L576.72,248.941L583.2,248.933L589.68,248.934L596.16,248.925L602.64,248.938L609.12,248.938L615.6,248.93L622.08,248.952L628.56,248.934L635.04,248.95L641.52,248.935L648,248.959" stroke="#29b09d" stroke-width="2"/></g></g><path class="foreground" aria-hidden="true" d="" display="none"/></g><g transform="translate(0,0)"><path class="background" aria-hidden="true" d="M0,0h648v249h-648Z"/><g><g class="mark-line role-mark marks" clip-path="url(#clip10)" role="graphics-object" aria-roledescription="line mark container"><path aria-label="Epoch: 1; value: 24.686799178;  : Label; label: Label" role="graphics-symbol" aria-roledescription="line mark" d="M6.48,214.85L12.96,219.38L19.44,222.189L25.92,224.272L32.4,225.846L38.88,227.257L45.36,228.592L51.84,229.835L58.32,230.883L64.8,231.958L71.28,232.982L77.76,233.864L84.24,234.811L90.72,235.561L97.2,236.406L103.68,237.087L110.16,237.916L116.64,238.369L123.12,239.072L129.6,239.727L136.08,240.254L142.56,240.715L149.04,241.23L155.52,241.617L162,241.976L168.48,242.459L174.96,242.902L181.44,243.164L187.92,243.43L194.4,243.664L200.88,243.979L207.36,244.276L213.84,244.406L220.32,244.688L226.8,244.894L233.28,245.069L239.76,245.296L246.24,245.504L252.72,245.563L259.2,245.715L265.68,245.801L272.16,245.984L278.64,246.174L285.12,246.133L291.6,246.343L298.08,246.214L304.56,246.519L311.04,246.493L317.52,246.519L324,246.709L330.48,246.706L336.96,246.753L343.44,246.861L349.92,246.925L356.4,246.785L362.88,247.084L369.36,247.034L375.84,247.15L382.32,247.248L388.8,247.105L395.28,247.103L401.76,247.247L408.24,247.307L414.72,247.352L421.2,247.276L427.68,247.334L434.16,247.435L440.64,247.425L447.12,247.428L453.6,247.404L460.08,247.506L466.56,247.506L473.04,247.622L479.52,247.51L486,247.516L492.48,247.572L498.96,247.725L505.44,247.63L511.92,247.67L518.4,247.539L524.88,247.632L531.36,247.713L537.84,247.731L544.32,247.729L550.8,247.706L557.28,247.8L563.76,247.806L570.24,247.833L576.72,247.732L583.2,247.875L589.68,247.776L596.16,247.838L602.64,247.814L609.12,247.961L615.6,247.887L622.08,247.891L628.56,247.918L635.04,247.84L641.52,247.94L648,247.99" stroke="#ff2b2b" stroke-width="2"/></g></g><path class="foreground" aria-hidden="true" d="" display="none"/></g><g transform="translate(0,0)"><path class="background" aria-hidden="true" d="M0,0h648v249h-648Z"/><g><g class="mark-line role-mark marks" clip-path="url(#clip11)" role="graphics-object" aria-roledescription="line mark container"><path aria-label="Epoch: 1; value: 1.33342327573;  : Mol; label: Mol" role="graphics-symbol" aria-roledescription="line mark" d="M6.48,247.155L12.96,247.341L19.44,247.485L25.92,247.588L32.4,247.676L38.88,247.762L45.36,247.832L51.84,247.895L58.32,247.951L64.8,248.009L71.28,248.058L77.76,248.111L84.24,248.148L90.72,248.191L97.2,248.229L103.68,248.262L110.16,248.294L116.64,248.319L123.12,248.351L129.6,248.369L136.08,248.397L142.56,248.423L149.04,248.446L155.52,248.464L162,248.479L168.48,248.502L174.96,248.518L181.44,248.535L187.92,248.547L194.4,248.563L200.88,248.575L207.36,248.589L213.84,248.6L220.32,248.607L226.8,248.621L233.28,248.63L239.76,248.639L246.24,248.65L252.72,248.659L259.2,248.663L265.68,248.671L272.16,248.681L278.64,248.691L285.12,248.693L291.6,248.702L298.08,248.709L304.56,248.712L311.04,248.718L317.52,248.725L324,248.731L330.48,248.733L336.96,248.741L343.44,248.743L349.92,248.751L356.4,248.753L362.88,248.76L369.36,248.762L375.84,248.767L382.32,248.769L388.8,248.773L395.28,248.776L401.76,248.779L408.24,248.786L414.72,248.786L421.2,248.785L427.68,248.792L434.16,248.795L440.64,248.794L447.12,248.799L453.6,248.798L460.08,248.805L466.56,248.807L473.04,248.81L479.52,248.813L486,248.812L492.48,248.819L498.96,248.818L505.44,248.82L511.92,248.818L518.4,248.823L524.88,248.828L531.36,248.825L537.84,248.828L544.32,248.829L550.8,248.833L557.28,248.833L563.76,248.835L570.24,248.836L576.72,248.834L583.2,248.84L589.68,248.841L596.16,248.844L602.64,248.845L609.12,248.848L615.6,248.847L622.08,248.846L628.56,248.848L635.04,248.851L641.52,248.848L648,248.856" stroke="#ffabab" stroke-width="2"/></g></g><path class="foreground" aria-hidden="true" d="" display="none"/></g></g><g class="mark-group role-legend" role="graphics-symbol" aria-roledescription="legend" aria-label="Symbol legend titled ' ' for stroke color with 7 values: Bond, Kl, Label, Mol, Root, Topo, Total"><g transform="translate(0,286)"><path class="background" aria-hidden="true" d="M0,0h386v42h-386Z" pointer-events="none"/><g><g class="mark-group role-legend-entry"><g transform="translate(7,21)"><path class="background" aria-hidden="true" d="M0,0h0v0h0Z" pointer-events="none"/><g><g class="mark-group role-scope" role="graphics-object" aria-roledescription="group mark container"><g transform="translate(0,0)"><path class="background" aria-hidden="true" d="M0,0h49.24787902832031v14h-49.24787902832031Z" pointer-events="none" opacity="1"/><g><g class="mark-symbol role-legend-symbol" pointer-events="none"><path transform="translate(7,7)" d="M-5,0L5,0" stroke="#0068c9" stroke-width="4" opacity="1"/></g><g class="mark-text role-legend-label" pointer-events="none"><text text-anchor="start" transform="translate(18,11)" font-family="&quot;Source Sans Pro&quot;, sans-serif" font-size="14px" font-weight="400" fill="#808495" opacity="1">Bond</text></g></g><path class="foreground" aria-hidden="true" d="" pointer-events="none" display="none"/></g><g transform="translate(60,0)"><path class="background" aria-hidden="true" d="M0,0h29.67596435546875v14h-29.67596435546875Z" pointer-events="none" opacity="1"/><g><g class="mark-symbol role-legend-symbol" pointer-events="none"><path transform="translate(7,7)" d="M-5,0L5,0" stroke="#83c9ff" stroke-width="4" opacity="1"/></g><g class="mark-text role-legend-label" pointer-events="none"><text text-anchor="start" transform="translate(18,11)" font-family="&quot;Source Sans Pro&quot;, sans-serif" font-size="14px" font-weight="400" fill="#808495" opacity="1">Kl</text></g></g><path class="foreground" aria-hidden="true" d="" pointer-events="none" display="none"/></g><g transform="translate(100,0)"><path class="background" aria-hidden="true" d="M0,0h50.115875244140625v14h-50.115875244140625Z" pointer-events="none" opacity="1"/><g><g class="mark-symbol role-legend-symbol" pointer-events="none"><path transform="translate(7,7)" d="M-5,0L5,0" stroke="#ff2b2b" stroke-width="4" opacity="1"/></g><g class="mark-text role-legend-label" pointer-events="none"><text text-anchor="start" transform="translate(18,11)" font-family="&quot;Source Sans Pro&quot;, sans-serif" font-size="14px" font-weight="400" fill="#808495" opacity="1">Label</text></g></g><path class="foreground" aria-hidden="true" d="" pointer-events="none" display="none"/></g><g transform="translate(161,0)"><path class="background" aria-hidden="true" d="M0,0h39.33592224121094v14h-39.33592224121094Z" pointer-events="none" opacity="1"/><g><g class="mark-symbol role-legend-symbol" pointer-events="none"><path transform="translate(7,7)" d="M-5,0L5,0" stroke="#ffabab" stroke-width="4" opacity="1"/></g><g class="mark-text role-legend-label" pointer-events="none"><text text-anchor="start" transform="translate(18,11)" font-family="&quot;Source Sans Pro&quot;, sans-serif" font-size="14px" font-weight="400" fill="#808495" opacity="1">Mol</text></g></g><path class="foreground" aria-hidden="true" d="" pointer-events="none" display="none"/></g><g transform="translate(211,0)"><path class="background" aria-hidden="true" d="M0,0h45.495880126953125v14h-45.495880126953125Z" pointer-events="none" opacity="1"/><g><g class="mark-symbol role-legend-symbol" pointer-events="none"><path transform="translate(7,7)" d="M-5,0L5,0" stroke="#29b09d" stroke-width="4" opacity="1"/></g><g class="mark-text role-legend-label" pointer-events="none"><text text-anchor="start" transform="translate(18,11)" font-family="&quot;Source Sans Pro&quot;, sans-serif" font-size="14px" font-weight="400" fill="#808495" opacity="1">Root</text></g></g><path class="foreground" aria-hidden="true" d="" pointer-events="none" display="none"/></g><g transform="translate(267,0)"><path class="background" aria-hidden="true" d="M0,0h47.52587890625v14h-47.52587890625Z" pointer-events="none" opacity="1"/><g><g class="mark-symbol role-legend-symbol" pointer-events="none"><path transform="translate(7,7)" d="M-5,0L5,0" stroke="#7defa1" stroke-width="4" opacity="1"/></g><g class="mark-text role-legend-label" pointer-events="none"><text text-anchor="start" transform="translate(18,11)" font-family="&quot;Source Sans Pro&quot;, sans-serif" font-size="14px" font-weight="400" fill="#808495" opacity="1">Topo</text></g></g><path class="foreground" aria-hidden="true" d="" pointer-events="none" display="none"/></g><g transform="translate(325,0)"><path class="background" aria-hidden="true" d="M0,0h46.993865966796875v14h-46.993865966796875Z" pointer-events="none" opacity="1"/><g><g class="mark-symbol role-legend-symbol" pointer-events="none"><path transform="translate(7,7)" d="M-5,0L5,0" stroke="#ff8700" stroke-width="4" opacity="1"/></g><g class="mark-text role-legend-label" pointer-events="none"><text text-anchor="start" transform="translate(18,11)" font-family="&quot;Source Sans Pro&quot;, sans-serif" font-size="14px" font-weight="400" fill="#808495" opacity="1">Total</text></g></g><path class="foreground" aria-hidden="true" d="" pointer-events="none" display="none"/></g></g></g><path class="foreground" aria-hidden="true" d="" pointer-events="none" display="none"/></g></g><g class="mark-text role-legend-title" pointer-events="none"><text text-anchor="start" transform="translate(7,18)" font-family="&quot;Source Sans Pro&quot;, sans-serif" font-size="14px" font-style="normal" font-weight="400" fill="#808495" opacity="1"/></g></g><path class="foreground" aria-hidden="true" d="" pointer-events="none" display="none"/></g></g></g><path class="foreground" aria-hidden="true" d="" display="none"/></g></g></g><defs><clipPath id="clip5"><rect x="0" y="0" width="648" height="249"/></clipPath><clipPath id="clip6"><rect x="0" y="0" width="648" height="249"/></clipPath><clipPath id="clip7"><rect x="0" y="0" width="648" height="249"/></clipPath><clipPath id="clip8"><rect x="0" y="0" width="648" height="249"/></clipPath><clipPath id="clip9"><rect x="0" y="0" width="648" height="249"/></clipPath><clipPath id="clip10"><rect x="0" y="0" width="648" height="249"/></clipPath><clipPath id="clip11"><rect x="0" y="0" width="648" height="249"/></clipPath></defs></svg>