<svg xmlns="http://www.w3.org/2000/svg" xmlns:xlink="http://www.w3.org/1999/xlink" version="1.1" class="marks" width="563" height="350" viewBox="0 0 563 350"><rect width="563" height="350" fill="#ffffff"/><g fill="none" stroke-miterlimit="10" transform="translate(34,2)"><g class="mark-group role-frame root" role="graphics-object" aria-roledescription="group mark container"><g transform="translate(0,0)"><path class="background" aria-hidden="true" d="M0,0h528v249h-528Z" stroke-width="0"/><g><g class="mark-group role-axis" aria-hidden="true"><g transform="translate(0.5,0.5)"><path class="background" aria-hidden="true" d="M0,0h0v0h0Z" pointer-events="none"/><g><g class="mark-rule role-axis-grid" pointer-events="none"><line transform="translate(0,230)" x2="528" y2="0" stroke="#e6eaf1" stroke-width="1" opacity="1"/><line transform="translate(0,192)" x2="528" y2="0" stroke="#e6eaf1" stroke-width="1" opacity="1"/><line transform="translate(0,153)" x2="528" y2="0" stroke="#e6eaf1" stroke-width="1" opacity="1"/><line transform="translate(0,115)" x2="528" y2="0" stroke="#e6eaf1" stroke-width="1" opacity="1"/><line transform="translate(0,77)" x2="528" y2="0" stroke="#e6eaf1" stroke-width="1" opacity="1"/><line transform="translate(0,38)" x2="528" y2="0" stroke="#e6eaf1" stroke-width="1" opacity="1"/><line transform="translate(0,0)" x2="528" y2="0" stroke="#e6eaf1" stroke-width="1" opacity="1"/></g></g><path class="foreground" aria-hidden="true" d="" pointer-events="none" display="none"/></g></g><g class="mark-group role-axis" role="graphics-symbol" aria-roledescription="axis" aria-label="X-axis for a linear scale with values from 0 to 50"><g transform="translate(0.5,249.5)"><path class="background" aria-hidden="true" d="M0,0h0v0h0Z" pointer-events="none"/><g><g class="mark-text role-axis-label" pointer-events="none"><text text-anchor="start" transform="translate(-1,25)" font-family="&quot;Source Sans Pro&quot;, sans-serif" font-size="12px" font-style="normal" font-weight="400" fill="#808495" opacity="1">0</text><text text-anchor="middle" transform="translate(52.800000000000004,25)" font-family="&quot;Source Sans Pro&quot;, sans-serif" font-size="12px" font-style="normal" font-weight="400" fill="#808495" opacity="1">5</text><text text-anchor="middle" transform="translate(105.60000000000001,25)" font-family="&quot;Source Sans Pro&quot;, sans-serif" font-size="12px" font-style="normal" font-weight="400" fill="#808495" opacity="1">10</text><text text-anchor="middle" transform="translate(158.4,25)" font-family="&quot;Source Sans Pro&quot;, sans-serif" font-size="12px" font-style="normal" font-weight="400" fill="#808495" opacity="1">15</text><text text-anchor="middle" transform="translate(211.20000000000002,25)" font-family="&quot;Source Sans Pro&quot;, sans-serif" font-size="12px" font-style="normal" font-weight="400" fill="#808495" opacity="1">20</text><text text-anchor="middle" transform="translate(264,25)" font-family="&quot;Source Sans Pro&quot;, sans-serif" font-size="12px" font-style="normal" font-weight="400" fill="#808495" opacity="1">25</text><text text-anchor="middle" transform="translate(316.8,25)" font-family="&quot;Source Sans Pro&quot;, sans-serif" font-size="12px" font-style="normal" font-weight="400" fill="#808495" opacity="1">30</text><text text-anchor="middle" transform="translate(369.59999999999997,25)" font-family="&quot;Source Sans Pro&quot;, sans-serif" font-size="12px" font-style="normal" font-weight="400" fill="#808495" opacity="1">35</text><text text-anchor="middle" transform="translate(422.40000000000003,25)" font-family="&quot;Source Sans Pro&quot;, sans-serif" font-size="12px" font-style="normal" font-weight="400" fill="#808495" opacity="1">40</text><text text-anchor="middle" transform="translate(475.2,25)" font-family="&quot;Source Sans Pro&quot;, sans-serif" font-size="12px" font-style="normal" font-weight="400" fill="#808495" opacity="1">45</text><text text-anchor="end" transform="translate(529,25)" font-family="&quot;Source Sans Pro&quot;, sans-serif" font-size="12px" font-style="normal" font-weight="400" fill="#808495" opacity="1">50</text></g></g><path class="foreground" aria-hidden="true" d="" pointer-events="none" display="none"/></g></g><g class="mark-group role-axis" role="graphics-symbol" aria-roledescription="axis" aria-label="Y-axis for a linear scale with values from −10 to 120"><g transform="translate(0.5,0.5)"><path class="background" aria-hidden="true" d="M0,0h0v0h0Z" pointer-events="none"/><g><g class="mark-text role-axis-label" pointer-events="none"><text text-anchor="end" transform="translate(-16,233.84615384615387)" font-family="&quot;Source Sans Pro&quot;, sans-serif" font-size="12px" font-style="normal" font-weight="400" fill="#808495" opacity="1">0</text><text text-anchor="end" transform="translate(-16,195.53846153846152)" font-family="&quot;Source Sans Pro&quot;, sans-serif" font-size="12px" font-style="normal" font-weight="400" fill="#808495" opacity="1">20</text><text text-anchor="end" transform="translate(-16,157.23076923076923)" font-family="&quot;Source Sans Pro&quot;, sans-serif" font-size="12px" font-style="normal" font-weight="400" fill="#808495" opacity="1">40</text><text text-anchor="end" transform="translate(-16,118.92307692307693)" font-family="&quot;Source Sans Pro&quot;, sans-serif" font-size="12px" font-style="normal" font-weight="400" fill="#808495" opacity="1">60</text><text text-anchor="end" transform="translate(-16,80.61538461538461)" font-family="&quot;Source Sans Pro&quot;, sans-serif" font-size="12px" font-style="normal" font-weight="400" fill="#808495" opacity="1">80</text><text text-anchor="end" transform="translate(-16,42.30769230769231)" font-family="&quot;Source Sans Pro&quot;, sans-serif" font-size="12px" font-style="normal" font-weight="400" fill="#808495" opacity="1">100</text><text text-anchor="end" transform="translate(-16,8)" font-family="&quot;Source Sans Pro&quot;, sans-serif" font-size="12px" font-style="normal" font-weight="400" fill="#808495" opacity="1">120</text></g></g><path class="foreground" aria-hidden="true" d="" pointer-events="none" display="none"/></g></g><g class="mark-group role-scope pathgroup" role="graphics-object" aria-roledescription="group mark container"><g transform="translate(0,0)"><path class="background" aria-hidden="true" d="M0,0h528v249h-528Z"/><g><g class="mark-line role-mark marks" clip-path="url(#clip9)" role="graphics-object" aria-roledescription="line mark container"><path aria-label="Epoch: 1; value: −0.0235186470902;  : Policy Gradient Loss; label: Policy Gradient Loss" role="graphics-symbol" aria-roledescription="line mark" d="M10.56,229.891L21.12,229.932L31.68,229.957L42.24,229.976L52.8,229.974L63.36,229.992L73.92,229.985L84.48,229.996L95.04,229.985L105.6,229.976L116.16,229.958L126.72,229.968L137.28,229.982L147.84,229.973L158.4,229.998L168.96,230L179.52,230.001L190.08,229.978L200.64,229.976L211.2,229.97L221.76,229.953L232.32,229.954L242.88,229.934L253.44,229.956L264,229.935L274.56,229.929L285.12,229.932L295.68,229.91L306.24,229.922L316.8,229.911L327.36,229.915L337.92,229.902L348.48,229.915L359.04,229.918L369.6,229.926L380.16,229.91L390.72,229.922L401.28,229.904L411.84,229.895L422.4,229.883L432.96,229.874L443.52,229.867L454.08,229.867L464.64,229.862L475.2,229.86L485.76,229.854L496.32,229.857L506.88,229.866L517.44,229.878L528,229.866" stroke="#83c9ff" stroke-width="2"/></g></g><path class="foreground" aria-hidden="true" d="" display="none"/></g><g transform="translate(0,0)"><path class="background" aria-hidden="true" d="M0,0h528v249h-528Z"/><g><g class="mark-line role-mark marks" clip-path="url(#clip10)" role="graphics-object" aria-roledescription="line mark container"><path aria-label="Epoch: 1; value: 118.222296587;  : KL Loss; label: KL Loss" role="graphics-symbol" aria-roledescription="line mark" d="M10.56,3.405L21.12,15.709L31.68,24.615L42.24,31.602L52.8,37.28L63.36,41.937L73.92,45.274L84.48,48.175L95.04,50.402L105.6,52.731L116.16,54.631L126.72,56.593L137.28,57.998L147.84,59.296L158.4,60.444L168.96,61.239L179.52,62.185L190.08,63.065L200.64,64.076L211.2,64.719L221.76,65.359L232.32,66.113L242.88,66.937L253.44,67.475L264,68.061L274.56,68.537L285.12,69.151L295.68,69.614L306.24,70.095L316.8,70.725L327.36,71.097L337.92,71.707L348.48,72.198L359.04,72.612L369.6,73.132L380.16,73.675L390.72,74.251L401.28,75.035L411.84,75.906L422.4,76.836L432.96,77.757L443.52,78.771L454.08,79.825L464.64,81.003L475.2,82.318L485.76,83.38L496.32,84.592L506.88,85.854L517.44,86.926L528,88.018" stroke="#0068c9" stroke-width="2"/></g></g><path class="foreground" aria-hidden="true" d="" display="none"/></g></g><g class="mark-group role-legend" role="graphics-symbol" aria-roledescription="legend" aria-label="Symbol legend titled ' ' for stroke color with 2 values: KL Loss, Policy Gradient Loss"><g transform="translate(0,286)"><path class="background" aria-hidden="true" d="M0,0h222v42h-222Z" pointer-events="none"/><g><g class="mark-group role-legend-entry"><g transform="translate(7,21)"><path class="background" aria-hidden="true" d="M0,0h0v0h0Z" pointer-events="none"/><g><g class="mark-group role-scope" role="graphics-object" aria-roledescription="group mark container"><g transform="translate(0,0)"><path class="background" aria-hidden="true" d="M0,0h61.66583251953125v14h-61.66583251953125Z" pointer-events="none" opacity="1"/><g><g class="mark-symbol role-legend-symbol" pointer-events="none"><path transform="translate(7,7)" d="M-5,0L5,0" stroke="#0068c9" stroke-width="4" opacity="1"/></g><g class="mark-text role-legend-label" pointer-events="none"><text text-anchor="start" transform="translate(18,11)" font-family="&quot;Source Sans Pro&quot;, sans-serif" font-size="14px" font-weight="400" fill="#808495" opacity="1">KL Loss</text></g></g><path class="foreground" aria-hidden="true" d="" pointer-events="none" display="none"/></g><g transform="translate(72,0)"><path class="background" aria-hidden="true" d="M0,0h135.5155487060547v14h-135.5155487060547Z" pointer-events="none" opacity="1"/><g><g class="mark-symbol role-legend-symbol" pointer-events="none"><path transform="translate(7,7)" d="M-5,0L5,0" stroke="#83c9ff" stroke-width="4" opacity="1"/></g><g class="mark-text role-legend-label" pointer-events="none"><text text-anchor="start" transform="translate(18,11)" font-family="&quot;Source Sans Pro&quot;, sans-serif" font-size="14px" font-weight="400" fill="#808495" opacity="1">Policy Gradient Loss</text></g></g><path class="foreground" aria-hidden="true" d="" pointer-events="none" display="none"/></g></g></g><path class="foreground" aria-hidden="true" d="" pointer-events="none" display="none"/></g></g><g class="mark-text role-legend-title" pointer-events="none"><text text-anchor="start" transform="translate(7,18)" font-family="&quot;Source Sans Pro&quot;, sans-serif" font-size="14px" font-style="normal" font-weight="400" fill="#808495" opacity="1"/></g></g><path class="foreground" aria-hidden="true" d="" pointer-events="none" display="none"/></g></g></g><path class="foreground" aria-hidden="true" d="" display="none"/></g></g></g><defs><clipPath id="clip9"><rect x="0" y="0" width="528" height="249"/></clipPath><clipPath id="clip10"><rect x="0" y="0" width="528" height="249"/></clipPath></defs></svg>