<svg xmlns="http://www.w3.org/2000/svg" xmlns:xlink="http://www.w3.org/1999/xlink" version="1.1" class="marks" width="563" height="350" viewBox="0 0 563 350"><rect width="563" height="350" fill="#ffffff"/><g fill="none" stroke-miterlimit="10" transform="translate(31,2)"><g class="mark-group role-frame root" role="graphics-object" aria-roledescription="group mark container"><g transform="translate(0,0)"><path class="background" aria-hidden="true" d="M0,0h531v249h-531Z" stroke-width="0"/><g><g class="mark-group role-axis" aria-hidden="true"><g transform="translate(0.5,0.5)"><path class="background" aria-hidden="true" d="M0,0h0v0h0Z" pointer-events="none"/><g><g class="mark-rule role-axis-grid" pointer-events="none"><line transform="translate(0,249)" x2="531" y2="0" stroke="#e6eaf1" stroke-width="1" opacity="1"/><line transform="translate(0,199)" x2="531" y2="0" stroke="#e6eaf1" stroke-width="1" opacity="1"/><line transform="translate(0,149)" x2="531" y2="0" stroke="#e6eaf1" stroke-width="1" opacity="1"/><line transform="translate(0,100)" x2="531" y2="0" stroke="#e6eaf1" stroke-width="1" opacity="1"/><line transform="translate(0,50)" x2="531" y2="0" stroke="#e6eaf1" stroke-width="1" opacity="1"/><line transform="translate(0,0)" x2="531" y2="0" stroke="#e6eaf1" stroke-width="1" opacity="1"/></g></g><path class="foreground" aria-hidden="true" d="" pointer-events="none" display="none"/></g></g><g class="mark-group role-axis" role="graphics-symbol" aria-roledescription="axis" aria-label="X-axis for a linear scale with values from 0 to 50"><g transform="translate(0.5,249.5)"><path class="background" aria-hidden="true" d="M0,0h0v0h0Z" pointer-events="none"/><g><g class="mark-text role-axis-label" pointer-events="none"><text text-anchor="start" transform="translate(-1,25)" font-family="&quot;Source Sans Pro&quot;, sans-serif" font-size="12px" font-style="normal" font-weight="400" fill="#808495" opacity="1">0</text><text text-anchor="middle" transform="translate(53.1,25)" font-family="&quot;Source Sans Pro&quot;, sans-serif" font-size="12px" font-style="normal" font-weight="400" fill="#808495" opacity="1">5</text><text text-anchor="middle" transform="translate(106.2,25)" font-family="&quot;Source Sans Pro&quot;, sans-serif" font-size="12px" font-style="normal" font-weight="400" fill="#808495" opacity="1">10</text><text text-anchor="middle" transform="translate(159.29999999999998,25)" font-family="&quot;Source Sans Pro&quot;, sans-serif" font-size="12px" font-style="normal" font-weight="400" fill="#808495" opacity="1">15</text><text text-anchor="middle" transform="translate(212.4,25)" font-family="&quot;Source Sans Pro&quot;, sans-serif" font-size="12px" font-style="normal" font-weight="400" fill="#808495" opacity="1">20</text><text text-anchor="middle" transform="translate(265.5,25)" font-family="&quot;Source Sans Pro&quot;, sans-serif" font-size="12px" font-style="normal" font-weight="400" fill="#808495" opacity="1">25</text><text text-anchor="middle" transform="translate(318.59999999999997,25)" font-family="&quot;Source Sans Pro&quot;, sans-serif" font-size="12px" font-style="normal" font-weight="400" fill="#808495" opacity="1">30</text><text text-anchor="middle" transform="translate(371.7,25)" font-family="&quot;Source Sans Pro&quot;, sans-serif" font-size="12px" font-style="normal" font-weight="400" fill="#808495" opacity="1">35</text><text text-anchor="middle" transform="translate(424.8,25)" font-family="&quot;Source Sans Pro&quot;, sans-serif" font-size="12px" font-style="normal" font-weight="400" fill="#808495" opacity="1">40</text><text text-anchor="middle" transform="translate(477.90000000000003,25)" font-family="&quot;Source Sans Pro&quot;, sans-serif" font-size="12px" font-style="normal" font-weight="400" fill="#808495" opacity="1">45</text><text text-anchor="end" transform="translate(532,25)" font-family="&quot;Source Sans Pro&quot;, sans-serif" font-size="12px" font-style="normal" font-weight="400" fill="#808495" opacity="1">50</text></g></g><path class="foreground" aria-hidden="true" d="" pointer-events="none" display="none"/></g></g><g class="mark-group role-axis" role="graphics-symbol" aria-roledescription="axis" aria-label="Y-axis for a linear scale with values from 0.0 to 1.0"><g transform="translate(0.5,0.5)"><path class="background" aria-hidden="true" d="M0,0h0v0h0Z" pointer-events="none"/><g><g class="mark-text role-axis-label" pointer-events="none"><text text-anchor="end" transform="translate(-16,247)" font-family="&quot;Source Sans Pro&quot;, sans-serif" font-size="12px" font-style="normal" font-weight="400" fill="#808495" opacity="1">0.0</text><text text-anchor="end" transform="translate(-16,203.20000000000002)" font-family="&quot;Source Sans Pro&quot;, sans-serif" font-size="12px" font-style="normal" font-weight="400" fill="#808495" opacity="1">0.2</text><text text-anchor="end" transform="translate(-16,153.4)" font-family="&quot;Source Sans Pro&quot;, sans-serif" font-size="12px" font-style="normal" font-weight="400" fill="#808495" opacity="1">0.4</text><text text-anchor="end" transform="translate(-16,103.60000000000001)" font-family="&quot;Source Sans Pro&quot;, sans-serif" font-size="12px" font-style="normal" font-weight="400" fill="#808495" opacity="1">0.6</text><text text-anchor="end" transform="translate(-16,53.79999999999999)" font-family="&quot;Source Sans Pro&quot;, sans-serif" font-size="12px" font-style="normal" font-weight="400" fill="#808495" opacity="1">0.8</text><text text-anchor="end" transform="translate(-16,8)" font-family="&quot;Source Sans Pro&quot;, sans-serif" font-size="12px" font-style="normal" font-weight="400" fill="#808495" opacity="1">1.0</text></g></g><path class="foreground" aria-hidden="true" d="" pointer-events="none" display="none"/></g></g><g class="mark-group role-scope pathgroup" role="graphics-object" aria-roledescription="group mark container"><g transform="translate(0,0)"><path class="background" aria-hidden="true" d="M0,0h531v249h-531Z"/><g><g class="mark-line role-mark marks" clip-path="url(#clip8)" role="graphics-object" aria-roledescription="line mark container"><path aria-label="Epoch: 1; value: 1;  : Valid Ratio; label: Valid Ratio" role="graphics-symbol" aria-roledescription="line mark" d="M10.62,0L21.24,0L31.86,0L42.48,0L53.1,0L63.72,0L74.34,0L84.96,0L95.58,0L106.2,0L116.82,0L127.44,0L138.06,0L148.68,0L159.3,0L169.92,0L180.54,0L191.16,0L201.78,0L212.4,0L223.02,0L233.64,0L244.26,0L254.88,0L265.5,0L276.12,0L286.74,0L297.36,0L307.98,0L318.6,0L329.22,0L339.84,0L350.46,0L361.08,0L371.7,0L382.32,0L392.94,0L403.56,0L414.18,0L424.8,0L435.42,0L446.04,0L456.66,0L467.28,0L477.9,0L488.52,0L499.14,0L509.76,0L520.38,0L531,0" stroke="#0068c9" stroke-width="2"/></g></g><path class="foreground" aria-hidden="true" d="" display="none"/></g></g><g class="mark-group role-legend" role="graphics-symbol" aria-roledescription="legend" aria-label="Symbol legend titled ' ' for stroke color with 1 value: Valid Ratio"><g transform="translate(0,286)"><path class="background" aria-hidden="true" d="M0,0h95v42h-95Z" pointer-events="none"/><g><g class="mark-group role-legend-entry"><g transform="translate(7,21)"><path class="background" aria-hidden="true" d="M0,0h0v0h0Z" pointer-events="none"/><g><g class="mark-group role-scope" role="graphics-object" aria-roledescription="group mark container"><g transform="translate(0,0)"><path class="background" aria-hidden="true" d="M0,0h80.07575988769531v14h-80.07575988769531Z" pointer-events="none" opacity="1"/><g><g class="mark-symbol role-legend-symbol" pointer-events="none"><path transform="translate(7,7)" d="M-5,0L5,0" stroke="#0068c9" stroke-width="4" opacity="1"/></g><g class="mark-text role-legend-label" pointer-events="none"><text text-anchor="start" transform="translate(18,11)" font-family="&quot;Source Sans Pro&quot;, sans-serif" font-size="14px" font-weight="400" fill="#808495" opacity="1">Valid Ratio</text></g></g><path class="foreground" aria-hidden="true" d="" pointer-events="none" display="none"/></g></g></g><path class="foreground" aria-hidden="true" d="" pointer-events="none" display="none"/></g></g><g class="mark-text role-legend-title" pointer-events="none"><text text-anchor="start" transform="translate(7,18)" font-family="&quot;Source Sans Pro&quot;, sans-serif" font-size="14px" font-style="normal" font-weight="400" fill="#808495" opacity="1"/></g></g><path class="foreground" aria-hidden="true" d="" pointer-events="none" display="none"/></g></g></g><path class="foreground" aria-hidden="true" d="" display="none"/></g></g></g><defs><clipPath id="clip8"><rect x="0" y="0" width="531" height="249"/></clipPath></defs></svg>