<svg xmlns="http://www.w3.org/2000/svg" xmlns:xlink="http://www.w3.org/1999/xlink" version="1.1" class="marks" width="563" height="350" viewBox="0 0 563 350"><rect width="563" height="350" fill="#ffffff"/><g fill="none" stroke-miterlimit="10" transform="translate(31,2)"><g class="mark-group role-frame root" role="graphics-object" aria-roledescription="group mark container"><g transform="translate(0,0)"><path class="background" aria-hidden="true" d="M0,0h531v249h-531Z" stroke-width="0"/><g><g class="mark-group role-axis" aria-hidden="true"><g transform="translate(0.5,0.5)"><path class="background" aria-hidden="true" d="M0,0h0v0h0Z" pointer-events="none"/><g><g class="mark-rule role-axis-grid" pointer-events="none"><line transform="translate(0,249)" x2="531" y2="0" stroke="#e6eaf1" stroke-width="1" opacity="1"/><line transform="translate(0,199)" x2="531" y2="0" stroke="#e6eaf1" stroke-width="1" opacity="1"/><line transform="translate(0,149)" x2="531" y2="0" stroke="#e6eaf1" stroke-width="1" opacity="1"/><line transform="translate(0,100)" x2="531" y2="0" stroke="#e6eaf1" stroke-width="1" opacity="1"/><line transform="translate(0,50)" x2="531" y2="0" stroke="#e6eaf1" stroke-width="1" opacity="1"/><line transform="translate(0,0)" x2="531" y2="0" stroke="#e6eaf1" stroke-width="1" opacity="1"/></g></g><path class="foreground" aria-hidden="true" d="" pointer-events="none" display="none"/></g></g><g class="mark-group role-axis" role="graphics-symbol" aria-roledescription="axis" aria-label="X-axis for a linear scale with values from 0 to 50"><g transform="translate(0.5,249.5)"><path class="background" aria-hidden="true" d="M0,0h0v0h0Z" pointer-events="none"/><g><g class="mark-text role-axis-label" pointer-events="none"><text text-anchor="start" transform="translate(-1,25)" font-family="&quot;Source Sans Pro&quot;, sans-serif" font-size="12px" font-style="normal" font-weight="400" fill="#808495" opacity="1">0</text><text text-anchor="middle" transform="translate(53.1,25)" font-family="&quot;Source Sans Pro&quot;, sans-serif" font-size="12px" font-style="normal" font-weight="400" fill="#808495" opacity="1">5</text><text text-anchor="middle" transform="translate(106.2,25)" font-family="&quot;Source Sans Pro&quot;, sans-serif" font-size="12px" font-style="normal" font-weight="400" fill="#808495" opacity="1">10</text><text text-anchor="middle" transform="translate(159.29999999999998,25)" font-family="&quot;Source Sans Pro&quot;, sans-serif" font-size="12px" font-style="normal" font-weight="400" fill="#808495" opacity="1">15</text><text text-anchor="middle" transform="translate(212.4,25)" font-family="&quot;Source Sans Pro&quot;, sans-serif" font-size="12px" font-style="normal" font-weight="400" fill="#808495" opacity="1">20</text><text text-anchor="middle" transform="translate(265.5,25)" font-family="&quot;Source Sans Pro&quot;, sans-serif" font-size="12px" font-style="normal" font-weight="400" fill="#808495" opacity="1">25</text><text text-anchor="middle" transform="translate(318.59999999999997,25)" font-family="&quot;Source Sans Pro&quot;, sans-serif" font-size="12px" font-style="normal" font-weight="400" fill="#808495" opacity="1">30</text><text text-anchor="middle" transform="translate(371.7,25)" font-family="&quot;Source Sans Pro&quot;, sans-serif" font-size="12px" font-style="normal" font-weight="400" fill="#808495" opacity="1">35</text><text text-anchor="middle" transform="translate(424.8,25)" font-family="&quot;Source Sans Pro&quot;, sans-serif" font-size="12px" font-style="normal" font-weight="400" fill="#808495" opacity="1">40</text><text text-anchor="middle" transform="translate(477.90000000000003,25)" font-family="&quot;Source Sans Pro&quot;, sans-serif" font-size="12px" font-style="normal" font-weight="400" fill="#808495" opacity="1">45</text><text text-anchor="end" transform="translate(532,25)" font-family="&quot;Source Sans Pro&quot;, sans-serif" font-size="12px" font-style="normal" font-weight="400" fill="#808495" opacity="1">50</text></g></g><path class="foreground" aria-hidden="true" d="" pointer-events="none" display="none"/></g></g><g class="mark-group role-axis" role="graphics-symbol" aria-roledescription="axis" aria-label="Y-axis for a linear scale with values from 0.0 to 1.0"><g transform="translate(0.5,0.5)"><path class="background" aria-hidden="true" d="M0,0h0v0h0Z" pointer-events="none"/><g><g class="mark-text role-axis-label" pointer-events="none"><text text-anchor="end" transform="translate(-16,247)" font-family="&quot;Source Sans Pro&quot;, sans-serif" font-size="12px" font-style="normal" font-weight="400" fill="#808495" opacity="1">0.0</text><text text-anchor="end" transform="translate(-16,203.20000000000002)" font-family="&quot;Source Sans Pro&quot;, sans-serif" font-size="12px" font-style="normal" font-weight="400" fill="#808495" opacity="1">0.2</text><text text-anchor="end" transform="translate(-16,153.4)" font-family="&quot;Source Sans Pro&quot;, sans-serif" font-size="12px" font-style="normal" font-weight="400" fill="#808495" opacity="1">0.4</text><text text-anchor="end" transform="translate(-16,103.60000000000001)" font-family="&quot;Source Sans Pro&quot;, sans-serif" font-size="12px" font-style="normal" font-weight="400" fill="#808495" opacity="1">0.6</text><text text-anchor="end" transform="translate(-16,53.79999999999999)" font-family="&quot;Source Sans Pro&quot;, sans-serif" font-size="12px" font-style="normal" font-weight="400" fill="#808495" opacity="1">0.8</text><text text-anchor="end" transform="translate(-16,8)" font-family="&quot;Source Sans Pro&quot;, sans-serif" font-size="12px" font-style="normal" font-weight="400" fill="#808495" opacity="1">1.0</text></g></g><path class="foreground" aria-hidden="true" d="" pointer-events="none" display="none"/></g></g><g class="mark-group role-scope pathgroup" role="graphics-object" aria-roledescription="group mark container"><g transform="translate(0,0)"><path class="background" aria-hidden="true" d="M0,0h531v249h-531Z"/><g><g class="mark-line role-mark marks" clip-path="url(#clip11)" role="graphics-object" aria-roledescription="line mark container"><path aria-label="Epoch: 1; value: 0.541889218023;  : Mean Reward; label: Mean Reward" role="graphics-symbol" aria-roledescription="line mark" d="M10.62,114.07L21.24,111.758L31.86,110.314L42.48,106.976L53.1,102.608L63.72,100.641L74.34,97.129L84.96,95.267L95.58,93.888L106.2,89.235L116.82,86.011L127.44,83.949L138.06,81.734L148.68,80.615L159.3,79.811L169.92,77.782L180.54,73.525L191.16,70.822L201.78,70.549L212.4,66.077L223.02,63.042L233.64,61.441L244.26,55.411L254.88,54.23L265.5,48.41L276.12,45.928L286.74,43.404L297.36,39.496L307.98,37.44L318.6,34.649L329.22,29.994L339.84,25.862L350.46,22.04L361.08,18.222L371.7,16.725L382.32,14.283L392.94,12.576L403.56,10.428L414.18,9.711L424.8,8.456L435.42,7.802L446.04,7.01L456.66,6.807L467.28,6.252L477.9,6.377L488.52,5.994L499.14,5.518L509.76,5.866L520.38,5.873L531,5.978" stroke="#ff2b2b" stroke-width="2"/></g></g><path class="foreground" aria-hidden="true" d="" display="none"/></g><g transform="translate(0,0)"><path class="background" aria-hidden="true" d="M0,0h531v249h-531Z"/><g><g class="mark-line role-mark marks" clip-path="url(#clip12)" role="graphics-object" aria-roledescription="line mark container"><path aria-label="Epoch: 1; value: 0.981081604958;  : Max Reward; label: Max Reward" role="graphics-symbol" aria-roledescription="line mark" d="M10.62,4.711L21.24,4.711L31.86,4.711L42.48,4.711L53.1,4.455L63.72,4.711L74.34,4.711L84.96,4.711L95.58,4.711L106.2,4.711L116.82,3.987L127.44,4.711L138.06,4.711L148.68,4.711L159.3,3.987L169.92,4.711L180.54,4.711L191.16,3.987L201.78,3.987L212.4,3.987L223.02,2.563L233.64,3.083L244.26,2.563L254.88,2.434L265.5,1.581L276.12,2.39L286.74,2.304L297.36,2.25L307.98,1.766L318.6,1.581L329.22,1.581L339.84,1.42L350.46,1.172L361.08,1.229L371.7,1.229L382.32,1.229L392.94,1.229L403.56,0.993L414.18,0.993L424.8,0.993L435.42,0.993L446.04,0.993L456.66,0.993L467.28,0.993L477.9,0.517L488.52,0.993L499.14,0.929L509.76,0.993L520.38,0.993L531,0.993" stroke="#83c9ff" stroke-width="2"/></g></g><path class="foreground" aria-hidden="true" d="" display="none"/></g><g transform="translate(0,0)"><path class="background" aria-hidden="true" d="M0,0h531v249h-531Z"/><g><g class="mark-line role-mark marks" clip-path="url(#clip13)" role="graphics-object" aria-roledescription="line mark container"><path aria-label="Epoch: 1; value: 0.0577295646071;  : Min Reward; label: Min Reward" role="graphics-symbol" aria-roledescription="line mark" d="M10.62,234.625L21.24,236.967L31.86,240.021L42.48,233.662L53.1,228.262L63.72,234.665L74.34,238.265L84.96,233.135L95.58,231.701L106.2,231.834L116.82,231.264L127.44,231.185L138.06,232.399L148.68,234.404L159.3,236.309L169.92,235.619L180.54,231.299L191.16,236.714L201.78,234.522L212.4,235.913L223.02,233.746L233.64,236.538L244.26,230.045L254.88,231.299L265.5,230.045L276.12,228.421L286.74,231.562L297.36,214.209L307.98,229.39L318.6,235.083L329.22,229.522L339.84,239.755L350.46,231.292L361.08,211.327L371.7,233.527L382.32,229.522L392.94,235.558L403.56,226.357L414.18,234.794L424.8,220.338L435.42,226.005L446.04,228.023L456.66,226.357L467.28,211.327L477.9,214.209L488.52,223.94L499.14,226.357L509.76,203.445L520.38,228.023L531,211.327" stroke="#ffabab" stroke-width="2"/></g></g><path class="foreground" aria-hidden="true" d="" display="none"/></g><g transform="translate(0,0)"><path class="background" aria-hidden="true" d="M0,0h531v249h-531Z"/><g><g class="mark-line role-mark marks" clip-path="url(#clip14)" role="graphics-object" aria-roledescription="line mark container"><path aria-label="Epoch: 1; value: 0.539932198811;  : EMA Baseline; label: EMA Baseline" role="graphics-symbol" aria-roledescription="line mark" d="M10.62,114.557L21.24,114.781L31.86,108.673L42.48,105.019L53.1,98.728L63.72,99.386L74.34,95.877L84.96,96.051L95.58,94.957L106.2,92.327L116.82,86.344L127.44,86.504L138.06,80.747L148.68,82.447L159.3,77.057L169.92,76.406L180.54,79.745L191.16,72.244L201.78,73.06L212.4,69.193L223.02,66.298L233.64,60.562L244.26,54.997L254.88,53.671L265.5,45.387L276.12,47.451L286.74,44.348L297.36,37.275L307.98,39.453L318.6,31.761L329.22,30.331L339.84,23.648L350.46,19.781L361.08,16.143L371.7,19.587L382.32,10.022L392.94,10.111L403.56,10.452L414.18,10.854L424.8,8.829L435.42,9.784L446.04,5.639L456.66,6.861L467.28,5.73L477.9,6.522L488.52,5.443L499.14,4.656L509.76,5.647L520.38,7.956L531,5.17" stroke="#0068c9" stroke-width="2"/></g></g><path class="foreground" aria-hidden="true" d="" display="none"/></g></g><g class="mark-group role-legend" role="graphics-symbol" aria-roledescription="legend" aria-label="Symbol legend titled ' ' for stroke color with 4 values: EMA Baseline, Max Reward, Mean Reward, Min Reward"><g transform="translate(0,286)"><path class="background" aria-hidden="true" d="M0,0h413v42h-413Z" pointer-events="none"/><g><g class="mark-group role-legend-entry"><g transform="translate(7,21)"><path class="background" aria-hidden="true" d="M0,0h0v0h0Z" pointer-events="none"/><g><g class="mark-group role-scope" role="graphics-object" aria-roledescription="group mark container"><g transform="translate(0,0)"><path class="background" aria-hidden="true" d="M0,0h95.68569946289062v14h-95.68569946289062Z" pointer-events="none" opacity="1"/><g><g class="mark-symbol role-legend-symbol" pointer-events="none"><path transform="translate(7,7)" d="M-5,0L5,0" stroke="#0068c9" stroke-width="4" opacity="1"/></g><g class="mark-text role-legend-label" pointer-events="none"><text text-anchor="start" transform="translate(18,11)" font-family="&quot;Source Sans Pro&quot;, sans-serif" font-size="14px" font-weight="400" fill="#808495" opacity="1">EMA Baseline</text></g></g><path class="foreground" aria-hidden="true" d="" pointer-events="none" display="none"/></g><g transform="translate(106,0)"><path class="background" aria-hidden="true" d="M0,0h88.57373046875v14h-88.57373046875Z" pointer-events="none" opacity="1"/><g><g class="mark-symbol role-legend-symbol" pointer-events="none"><path transform="translate(7,7)" d="M-5,0L5,0" stroke="#83c9ff" stroke-width="4" opacity="1"/></g><g class="mark-text role-legend-label" pointer-events="none"><text text-anchor="start" transform="translate(18,11)" font-family="&quot;Source Sans Pro&quot;, sans-serif" font-size="14px" font-weight="400" fill="#808495" opacity="1">Max Reward</text></g></g><path class="foreground" aria-hidden="true" d="" pointer-events="none" display="none"/></g><g transform="translate(205,0)"><path class="background" aria-hidden="true" d="M0,0h96.73570251464844v14h-96.73570251464844Z" pointer-events="none" opacity="1"/><g><g class="mark-symbol role-legend-symbol" pointer-events="none"><path transform="translate(7,7)" d="M-5,0L5,0" stroke="#ff2b2b" stroke-width="4" opacity="1"/></g><g class="mark-text role-legend-label" pointer-events="none"><text text-anchor="start" transform="translate(18,11)" font-family="&quot;Source Sans Pro&quot;, sans-serif" font-size="14px" font-weight="400" fill="#808495" opacity="1">Mean Reward</text></g></g><path class="foreground" aria-hidden="true" d="" pointer-events="none" display="none"/></g><g transform="translate(312,0)"><path class="background" aria-hidden="true" d="M0,0h86.37574768066406v14h-86.37574768066406Z" pointer-events="none" opacity="1"/><g><g class="mark-symbol role-legend-symbol" pointer-events="none"><path transform="translate(7,7)" d="M-5,0L5,0" stroke="#ffabab" stroke-width="4" opacity="1"/></g><g class="mark-text role-legend-label" pointer-events="none"><text text-anchor="start" transform="translate(18,11)" font-family="&quot;Source Sans Pro&quot;, sans-serif" font-size="14px" font-weight="400" fill="#808495" opacity="1">Min Reward</text></g></g><path class="foreground" aria-hidden="true" d="" pointer-events="none" display="none"/></g></g></g><path class="foreground" aria-hidden="true" d="" pointer-events="none" display="none"/></g></g><g class="mark-text role-legend-title" pointer-events="none"><text text-anchor="start" transform="translate(7,18)" font-family="&quot;Source Sans Pro&quot;, sans-serif" font-size="14px" font-style="normal" font-weight="400" fill="#808495" opacity="1"/></g></g><path class="foreground" aria-hidden="true" d="" pointer-events="none" display="none"/></g></g></g><path class="foreground" aria-hidden="true" d="" display="none"/></g></g></g><defs><clipPath id="clip11"><rect x="0" y="0" width="531" height="249"/></clipPath><clipPath id="clip12"><rect x="0" y="0" width="531" height="249"/></clipPath><clipPath id="clip13"><rect x="0" y="0" width="531" height="249"/></clipPath><clipPath id="clip14"><rect x="0" y="0" width="531" height="249"/></clipPath></defs></svg>