<svg xmlns="http://www.w3.org/2000/svg" xmlns:xlink="http://www.w3.org/1999/xlink" version="1.1" class="marks" width="563" height="350" viewBox="0 0 563 350"><rect width="563" height="350" fill="#ffffff"/><g fill="none" stroke-miterlimit="10" transform="translate(31,2)"><g class="mark-group role-frame root" role="graphics-object" aria-roledescription="group mark container"><g transform="translate(0,0)"><path class="background" aria-hidden="true" d="M0,0h531v249h-531Z" stroke-width="0"/><g><g class="mark-group role-axis" aria-hidden="true"><g transform="translate(0.5,0.5)"><path class="background" aria-hidden="true" d="M0,0h0v0h0Z" pointer-events="none"/><g><g class="mark-rule role-axis-grid" pointer-events="none"><line transform="translate(0,249)" x2="531" y2="0" stroke="#e6eaf1" stroke-width="1" opacity="1"/><line transform="translate(0,199)" x2="531" y2="0" stroke="#e6eaf1" stroke-width="1" opacity="1"/><line transform="translate(0,149)" x2="531" y2="0" stroke="#e6eaf1" stroke-width="1" opacity="1"/><line transform="translate(0,100)" x2="531" y2="0" stroke="#e6eaf1" stroke-width="1" opacity="1"/><line transform="translate(0,50)" x2="531" y2="0" stroke="#e6eaf1" stroke-width="1" opacity="1"/><line transform="translate(0,0)" x2="531" y2="0" stroke="#e6eaf1" stroke-width="1" opacity="1"/></g></g><path class="foreground" aria-hidden="true" d="" pointer-events="none" display="none"/></g></g><g class="mark-group role-axis" role="graphics-symbol" aria-roledescription="axis" aria-label="X-axis for a linear scale with values from 0 to 50"><g transform="translate(0.5,249.5)"><path class="background" aria-hidden="true" d="M0,0h0v0h0Z" pointer-events="none"/><g><g class="mark-text role-axis-label" pointer-events="none"><text text-anchor="start" transform="translate(-1,25)" font-family="&quot;Source Sans Pro&quot;, sans-serif" font-size="12px" font-style="normal" font-weight="400" fill="#808495" opacity="1">0</text><text text-anchor="middle" transform="translate(53.1,25)" font-family="&quot;Source Sans Pro&quot;, sans-serif" font-size="12px" font-style="normal" font-weight="400" fill="#808495" opacity="1">5</text><text text-anchor="middle" transform="translate(106.2,25)" font-family="&quot;Source Sans Pro&quot;, sans-serif" font-size="12px" font-style="normal" font-weight="400" fill="#808495" opacity="1">10</text><text text-anchor="middle" transform="translate(159.29999999999998,25)" font-family="&quot;Source Sans Pro&quot;, sans-serif" font-size="12px" font-style="normal" font-weight="400" fill="#808495" opacity="1">15</text><text text-anchor="middle" transform="translate(212.4,25)" font-family="&quot;Source Sans Pro&quot;, sans-serif" font-size="12px" font-style="normal" font-weight="400" fill="#808495" opacity="1">20</text><text text-anchor="middle" transform="translate(265.5,25)" font-family="&quot;Source Sans Pro&quot;, sans-serif" font-size="12px" font-style="normal" font-weight="400" fill="#808495" opacity="1">25</text><text text-anchor="middle" transform="translate(318.59999999999997,25)" font-family="&quot;Source Sans Pro&quot;, sans-serif" font-size="12px" font-style="normal" font-weight="400" fill="#808495" opacity="1">30</text><text text-anchor="middle" transform="translate(371.7,25)" font-family="&quot;Source Sans Pro&quot;, sans-serif" font-size="12px" font-style="normal" font-weight="400" fill="#808495" opacity="1">35</text><text text-anchor="middle" transform="translate(424.8,25)" font-family="&quot;Source Sans Pro&quot;, sans-serif" font-size="12px" font-style="normal" font-weight="400" fill="#808495" opacity="1">40</text><text text-anchor="middle" transform="translate(477.90000000000003,25)" font-family="&quot;Source Sans Pro&quot;, sans-serif" font-size="12px" font-style="normal" font-weight="400" fill="#808495" opacity="1">45</text><text text-anchor="end" transform="translate(532,25)" font-family="&quot;Source Sans Pro&quot;, sans-serif" font-size="12px" font-style="normal" font-weight="400" fill="#808495" opacity="1">50</text></g></g><path class="foreground" aria-hidden="true" d="" pointer-events="none" display="none"/></g></g><g class="mark-group role-axis" role="graphics-symbol" aria-roledescription="axis" aria-label="Y-axis for a linear scale with values from 0.0 to 1.0"><g transform="translate(0.5,0.5)"><path class="background" aria-hidden="true" d="M0,0h0v0h0Z" pointer-events="none"/><g><g class="mark-text role-axis-label" pointer-events="none"><text text-anchor="end" transform="translate(-16,247)" font-family="&quot;Source Sans Pro&quot;, sans-serif" font-size="12px" font-style="normal" font-weight="400" fill="#808495" opacity="1">0.0</text><text text-anchor="end" transform="translate(-16,203.20000000000002)" font-family="&quot;Source Sans Pro&quot;, sans-serif" font-size="12px" font-style="normal" font-weight="400" fill="#808495" opacity="1">0.2</text><text text-anchor="end" transform="translate(-16,153.4)" font-family="&quot;Source Sans Pro&quot;, sans-serif" font-size="12px" font-style="normal" font-weight="400" fill="#808495" opacity="1">0.4</text><text text-anchor="end" transform="translate(-16,103.60000000000001)" font-family="&quot;Source Sans Pro&quot;, sans-serif" font-size="12px" font-style="normal" font-weight="400" fill="#808495" opacity="1">0.6</text><text text-anchor="end" transform="translate(-16,53.79999999999999)" font-family="&quot;Source Sans Pro&quot;, sans-serif" font-size="12px" font-style="normal" font-weight="400" fill="#808495" opacity="1">0.8</text><text text-anchor="end" transform="translate(-16,8)" font-family="&quot;Source Sans Pro&quot;, sans-serif" font-size="12px" font-style="normal" font-weight="400" fill="#808495" opacity="1">1.0</text></g></g><path class="foreground" aria-hidden="true" d="" pointer-events="none" display="none"/></g></g><g class="mark-group role-scope pathgroup" role="graphics-object" aria-roledescription="group mark container"><g transform="translate(0,0)"><path class="background" aria-hidden="true" d="M0,0h531v249h-531Z"/><g><g class="mark-line role-mark marks" clip-path="url(#clip6)" role="graphics-object" aria-roledescription="line mark container"><path aria-label="Epoch: 1; value: 0.541889218023;  : P(active); label: P(active)" role="graphics-symbol" aria-roledescription="line mark" d="M10.62,114.07L21.24,111.758L31.86,110.314L42.48,106.976L53.1,102.608L63.72,100.641L74.34,97.129L84.96,95.267L95.58,93.888L106.2,89.235L116.82,86.011L127.44,83.949L138.06,81.734L148.68,80.615L159.3,79.811L169.92,77.782L180.54,73.525L191.16,70.822L201.78,70.549L212.4,66.077L223.02,63.042L233.64,61.441L244.26,55.411L254.88,54.23L265.5,48.41L276.12,45.928L286.74,43.404L297.36,39.496L307.98,37.44L318.6,34.649L329.22,29.994L339.84,25.862L350.46,22.04L361.08,18.222L371.7,16.725L382.32,14.283L392.94,12.576L403.56,10.428L414.18,9.711L424.8,8.456L435.42,7.802L446.04,7.01L456.66,6.807L467.28,6.252L477.9,6.377L488.52,5.994L499.14,5.518L509.76,5.866L520.38,5.873L531,5.978" stroke="#0068c9" stroke-width="2"/></g></g><path class="foreground" aria-hidden="true" d="" display="none"/></g><g transform="translate(0,0)"><path class="background" aria-hidden="true" d="M0,0h531v249h-531Z"/><g><g class="mark-line role-mark marks" clip-path="url(#clip7)" role="graphics-object" aria-roledescription="line mark container"><path aria-label="Epoch: 1; value: 0.458110781977;  : P(inactive); label: P(inactive)" role="graphics-symbol" aria-roledescription="line mark" d="M10.62,134.93L21.24,137.242L31.86,138.686L42.48,142.024L53.1,146.392L63.72,148.359L74.34,151.871L84.96,153.733L95.58,155.112L106.2,159.765L116.82,162.989L127.44,165.051L138.06,167.266L148.68,168.385L159.3,169.189L169.92,171.218L180.54,175.475L191.16,178.178L201.78,178.451L212.4,182.923L223.02,185.958L233.64,187.559L244.26,193.589L254.88,194.77L265.5,200.59L276.12,203.072L286.74,205.596L297.36,209.504L307.98,211.56L318.6,214.351L329.22,219.006L339.84,223.138L350.46,226.96L361.08,230.778L371.7,232.275L382.32,234.717L392.94,236.424L403.56,238.572L414.18,239.289L424.8,240.544L435.42,241.198L446.04,241.99L456.66,242.193L467.28,242.748L477.9,242.623L488.52,243.006L499.14,243.482L509.76,243.134L520.38,243.127L531,243.022" stroke="#83c9ff" stroke-width="2"/></g></g><path class="foreground" aria-hidden="true" d="" display="none"/></g></g><g class="mark-group role-legend" role="graphics-symbol" aria-roledescription="legend" aria-label="Symbol legend titled ' ' for stroke color with 2 values: P(active), P(inactive)"><g transform="translate(0,286)"><path class="background" aria-hidden="true" d="M0,0h175v42h-175Z" pointer-events="none"/><g><g class="mark-group role-legend-entry"><g transform="translate(7,21)"><path class="background" aria-hidden="true" d="M0,0h0v0h0Z" pointer-events="none"/><g><g class="mark-group role-scope" role="graphics-object" aria-roledescription="group mark container"><g transform="translate(0,0)"><path class="background" aria-hidden="true" d="M0,0h69.30979919433594v14h-69.30979919433594Z" pointer-events="none" opacity="1"/><g><g class="mark-symbol role-legend-symbol" pointer-events="none"><path transform="translate(7,7)" d="M-5,0L5,0" stroke="#0068c9" stroke-width="4" opacity="1"/></g><g class="mark-text role-legend-label" pointer-events="none"><text text-anchor="start" transform="translate(18,11)" font-family="&quot;Source Sans Pro&quot;, sans-serif" font-size="14px" font-weight="400" fill="#808495" opacity="1">P(active)</text></g></g><path class="foreground" aria-hidden="true" d="" pointer-events="none" display="none"/></g><g transform="translate(80,0)"><path class="background" aria-hidden="true" d="M0,0h80.41175842285156v14h-80.41175842285156Z" pointer-events="none" opacity="1"/><g><g class="mark-symbol role-legend-symbol" pointer-events="none"><path transform="translate(7,7)" d="M-5,0L5,0" stroke="#83c9ff" stroke-width="4" opacity="1"/></g><g class="mark-text role-legend-label" pointer-events="none"><text text-anchor="start" transform="translate(18,11)" font-family="&quot;Source Sans Pro&quot;, sans-serif" font-size="14px" font-weight="400" fill="#808495" opacity="1">P(inactive)</text></g></g><path class="foreground" aria-hidden="true" d="" pointer-events="none" display="none"/></g></g></g><path class="foreground" aria-hidden="true" d="" pointer-events="none" display="none"/></g></g><g class="mark-text role-legend-title" pointer-events="none"><text text-anchor="start" transform="translate(7,18)" font-family="&quot;Source Sans Pro&quot;, sans-serif" font-size="14px" font-style="normal" font-weight="400" fill="#808495" opacity="1"/></g></g><path class="foreground" aria-hidden="true" d="" pointer-events="none" display="none"/></g></g></g><path class="foreground" aria-hidden="true" d="" display="none"/></g></g></g><defs><clipPath id="clip6"><rect x="0" y="0" width="531" height="249"/></clipPath><clipPath id="clip7"><rect x="0" y="0" width="531" height="249"/></clipPath></defs></svg>