<svg xmlns="http://www.w3.org/2000/svg" xmlns:xlink="http://www.w3.org/1999/xlink" version="1.1" class="marks" width="683" height="350" viewBox="0 0 683 350"><rect width="683" height="350" fill="#ffffff"/><g fill="none" stroke-miterlimit="10" transform="translate(31,2)"><g class="mark-group role-frame root" role="graphics-object" aria-roledescription="group mark container"><g transform="translate(0,0)"><path class="background" aria-hidden="true" d="M0,0h651v249h-651Z" stroke-width="0"/><g><g class="mark-group role-axis" aria-hidden="true"><g transform="translate(0.5,0.5)"><path class="background" aria-hidden="true" d="M0,0h0v0h0Z" pointer-events="none"/><g><g class="mark-rule role-axis-grid" pointer-events="none"><line transform="translate(0,249)" x2="651" y2="0" stroke="#e6eaf1" stroke-width="1" opacity="1"/><line transform="translate(0,199)" x2="651" y2="0" stroke="#e6eaf1" stroke-width="1" opacity="1"/><line transform="translate(0,149)" x2="651" y2="0" stroke="#e6eaf1" stroke-width="1" opacity="1"/><line transform="translate(0,100)" x2="651" y2="0" stroke="#e6eaf1" stroke-width="1" opacity="1"/><line transform="translate(0,50)" x2="651" y2="0" stroke="#e6eaf1" stroke-width="1" opacity="1"/><line transform="translate(0,0)" x2="651" y2="0" stroke="#e6eaf1" stroke-width="1" opacity="1"/></g></g><path class="foreground" aria-hidden="true" d="" pointer-events="none" display="none"/></g></g><g class="mark-group role-axis" role="graphics-symbol" aria-roledescription="axis" aria-label="X-axis for a linear scale with values from 0 to 100"><g transform="translate(0.5,249.5)"><path class="background" aria-hidden="true" d="M0,0h0v0h0Z" pointer-events="none"/><g><g class="mark-text role-axis-label" pointer-events="none"><text text-anchor="start" transform="translate(-1,25)" font-family="&quot;Source Sans Pro&quot;, sans-serif" font-size="12px" font-style="normal" font-weight="400" fill="#808495" opacity="1">0</text><text text-anchor="middle" transform="translate(32.550000000000004,25)" font-family="&quot;Source Sans Pro&quot;, sans-serif" font-size="12px" font-style="normal" font-weight="400" fill="#808495" opacity="1">5</text><text text-anchor="middle" transform="translate(65.10000000000001,25)" font-family="&quot;Source Sans Pro&quot;, sans-serif" font-size="12px" font-style="normal" font-weight="400" fill="#808495" opacity="1">10</text><text text-anchor="middle" transform="translate(97.64999999999999,25)" font-family="&quot;Source Sans Pro&quot;, sans-serif" font-size="12px" font-style="normal" font-weight="400" fill="#808495" opacity="1">15</text><text text-anchor="middle" transform="translate(130.20000000000002,25)" font-family="&quot;Source Sans Pro&quot;, sans-serif" font-size="12px" font-style="normal" font-weight="400" fill="#808495" opacity="1">20</text><text text-anchor="middle" transform="translate(162.75,25)" font-family="&quot;Source Sans Pro&quot;, sans-serif" font-size="12px" font-style="normal" font-weight="400" fill="#808495" opacity="1">25</text><text text-anchor="middle" transform="translate(195.29999999999998,25)" font-family="&quot;Source Sans Pro&quot;, sans-serif" font-size="12px" font-style="normal" font-weight="400" fill="#808495" opacity="1">30</text><text text-anchor="middle" transform="translate(227.85,25)" font-family="&quot;Source Sans Pro&quot;, sans-serif" font-size="12px" font-style="normal" font-weight="400" fill="#808495" opacity="1">35</text><text text-anchor="middle" transform="translate(260.40000000000003,25)" font-family="&quot;Source Sans Pro&quot;, sans-serif" font-size="12px" font-style="normal" font-weight="400" fill="#808495" opacity="1">40</text><text text-anchor="middle" transform="translate(292.95,25)" font-family="&quot;Source Sans Pro&quot;, sans-serif" font-size="12px" font-style="normal" font-weight="400" fill="#808495" opacity="1">45</text><text text-anchor="middle" transform="translate(325.5,25)" font-family="&quot;Source Sans Pro&quot;, sans-serif" font-size="12px" font-style="normal" font-weight="400" fill="#808495" opacity="1">50</text><text text-anchor="middle" transform="translate(358.05,25)" font-family="&quot;Source Sans Pro&quot;, sans-serif" font-size="12px" font-style="normal" font-weight="400" fill="#808495" opacity="1">55</text><text text-anchor="middle" transform="translate(390.59999999999997,25)" font-family="&quot;Source Sans Pro&quot;, sans-serif" font-size="12px" font-style="normal" font-weight="400" fill="#808495" opacity="1">60</text><text text-anchor="middle" transform="translate(423.15000000000003,25)" font-family="&quot;Source Sans Pro&quot;, sans-serif" font-size="12px" font-style="normal" font-weight="400" fill="#808495" opacity="1">65</text><text text-anchor="middle" transform="translate(455.7,25)" font-family="&quot;Source Sans Pro&quot;, sans-serif" font-size="12px" font-style="normal" font-weight="400" fill="#808495" opacity="1">70</text><text text-anchor="middle" transform="translate(488.25,25)" font-family="&quot;Source Sans Pro&quot;, sans-serif" font-size="12px" font-style="normal" font-weight="400" fill="#808495" opacity="1">75</text><text text-anchor="middle" transform="translate(520.8000000000001,25)" font-family="&quot;Source Sans Pro&quot;, sans-serif" font-size="12px" font-style="normal" font-weight="400" fill="#808495" opacity="1">80</text><text text-anchor="middle" transform="translate(553.35,25)" font-family="&quot;Source Sans Pro&quot;, sans-serif" font-size="12px" font-style="normal" font-weight="400" fill="#808495" opacity="1">85</text><text text-anchor="middle" transform="translate(585.9,25)" font-family="&quot;Source Sans Pro&quot;, sans-serif" font-size="12px" font-style="normal" font-weight="400" fill="#808495" opacity="1">90</text><text text-anchor="middle" transform="translate(618.4499999999999,25)" font-family="&quot;Source Sans Pro&quot;, sans-serif" font-size="12px" font-style="normal" font-weight="400" fill="#808495" opacity="1">95</text><text text-anchor="end" transform="translate(652,25)" font-family="&quot;Source Sans Pro&quot;, sans-serif" font-size="12px" font-style="normal" font-weight="400" fill="#808495" opacity="1">100</text></g></g><path class="foreground" aria-hidden="true" d="" pointer-events="none" display="none"/></g></g><g class="mark-group role-axis" role="graphics-symbol" aria-roledescription="axis" aria-label="Y-axis for a linear scale with values from 0.0 to 1.0"><g transform="translate(0.5,0.5)"><path class="background" aria-hidden="true" d="M0,0h0v0h0Z" pointer-events="none"/><g><g class="mark-text role-axis-label" pointer-events="none"><text text-anchor="end" transform="translate(-16,247)" font-family="&quot;Source Sans Pro&quot;, sans-serif" font-size="12px" font-style="normal" font-weight="400" fill="#808495" opacity="1">0.0</text><text text-anchor="end" transform="translate(-16,203.20000000000002)" font-family="&quot;Source Sans Pro&quot;, sans-serif" font-size="12px" font-style="normal" font-weight="400" fill="#808495" opacity="1">0.2</text><text text-anchor="end" transform="translate(-16,153.4)" font-family="&quot;Source Sans Pro&quot;, sans-serif" font-size="12px" font-style="normal" font-weight="400" fill="#808495" opacity="1">0.4</text><text text-anchor="end" transform="translate(-16,103.60000000000001)" font-family="&quot;Source Sans Pro&quot;, sans-serif" font-size="12px" font-style="normal" font-weight="400" fill="#808495" opacity="1">0.6</text><text text-anchor="end" transform="translate(-16,53.79999999999999)" font-family="&quot;Source Sans Pro&quot;, sans-serif" font-size="12px" font-style="normal" font-weight="400" fill="#808495" opacity="1">0.8</text><text text-anchor="end" transform="translate(-16,8)" font-family="&quot;Source Sans Pro&quot;, sans-serif" font-size="12px" font-style="normal" font-weight="400" fill="#808495" opacity="1">1.0</text></g></g><path class="foreground" aria-hidden="true" d="" pointer-events="none" display="none"/></g></g><g class="mark-group role-scope pathgroup" role="graphics-object" aria-roledescription="group mark container"><g transform="translate(0,0)"><path class="background" aria-hidden="true" d="M0,0h651v249h-651Z"/><g><g class="mark-line role-mark marks" clip-path="url(#clip1)" role="graphics-object" aria-roledescription="line mark container"><path aria-label="Epoch: 1; value: 0.824388461904;  : Topo; label: Topo" role="graphics-symbol" aria-roledescription="line mark" d="M6.51,43.727L13.02,29.779L19.53,22.942L26.04,19.004L32.55,15.118L39.06,12.799L45.57,11.149L52.08,9.652L58.59,8.82L65.1,7.571L71.61,6.701L78.12,6.337L84.63,5.402L91.14,5.595L97.65,4.889L104.16,4.555L110.67,4.343L117.18,3.852L123.69,3.551L130.2,3.185L136.71,3.236L143.22,2.829L149.73,2.751L156.24,2.522L162.75,3.03L169.26,2.529L175.77,2.442L182.28,2.326L188.79,2.202L195.3,2.269L201.81,1.906L208.32,1.726L214.83,1.698L221.34,2.01L227.85,1.668L234.36,1.93L240.87,1.379L247.38,1.576L253.89,1.329L260.4,1.348L266.91,1.477L273.42,1.505L279.93,1.345L286.44,1.344L292.95,1.181L299.46,1.335L305.97,1.074L312.48,1.106L318.99,1.222L325.5,0.938L332.01,1.429L338.52,1.172L345.03,0.992L351.54,0.776L358.05,1.118L364.56,0.887L371.07,1.012L377.58,1.095L384.09,0.861L390.6,1.11L397.11,0.898L403.62,0.878L410.13,0.881L416.64,0.865L423.15,0.777L429.66,0.84L436.17,0.712L442.68,0.924L449.19,0.862L455.7,0.803L462.21,0.786L468.72,0.873L475.23,0.696L481.74,0.906L488.25,0.69L494.76,0.821L501.27,0.709L507.78,0.708L514.29,0.659L520.8,0.975L527.31,0.595L533.82,0.621L540.33,0.693L546.84,0.512L553.35,0.647L559.86,0.777L566.37,0.565L572.88,0.49L579.39,0.721L585.9,0.624L592.41,0.627L598.92,0.622L605.43,0.81L611.94,0.471L618.45,0.673L624.96,0.487L631.47,0.767L637.98,0.625L644.49,0.601L651,0.457" stroke="#ffabab" stroke-width="2"/></g></g><path class="foreground" aria-hidden="true" d="" display="none"/></g><g transform="translate(0,0)"><path class="background" aria-hidden="true" d="M0,0h651v249h-651Z"/><g><g class="mark-line role-mark marks" clip-path="url(#clip2)" role="graphics-object" aria-roledescription="line mark container"><path aria-label="Epoch: 1; value: 0.982579639462;  : Bond; label: Bond" role="graphics-symbol" aria-roledescription="line mark" d="M6.51,4.338L13.02,4.179L19.53,4.088L26.04,4.032L32.55,4.1L39.06,4.066L45.57,4.136L52.08,3.882L58.59,3.812L65.1,3.343L71.61,3.161L78.12,2.995L84.63,2.975L91.14,2.952L97.65,2.486L104.16,2.587L110.67,2.552L117.18,2.418L123.69,2.306L130.2,2.281L136.71,2.156L143.22,2.025L149.73,2.176L156.24,1.93L162.75,1.987L169.26,1.605L175.77,1.733L182.28,1.755L188.79,1.7L195.3,1.468L201.81,1.654L208.32,1.367L214.83,1.464L221.34,1.24L227.85,1.219L234.36,1.359L240.87,1.034L247.38,1.233L253.89,0.979L260.4,1.155L266.91,1.131L273.42,0.837L279.93,0.935L286.44,1.063L292.95,0.829L299.46,0.82L305.97,0.7L312.48,0.856L318.99,0.7L325.5,0.556L332.01,0.692L338.52,0.584L345.03,0.706L351.54,0.627L358.05,0.535L364.56,0.651L371.07,0.787L377.58,0.591L384.09,0.61L390.6,0.496L397.11,0.495L403.62,0.557L410.13,0.351L416.64,0.567L423.15,0.526L429.66,0.412L436.17,0.388L442.68,0.453L449.19,0.566L455.7,0.379L462.21,0.254L468.72,0.381L475.23,0.146L481.74,0.258L488.25,0.335L494.76,0.345L501.27,0.327L507.78,0.405L514.29,0.286L520.8,0.361L527.31,0.411L533.82,0.178L540.33,0.127L546.84,0.281L553.35,0.269L559.86,0.26L566.37,0.404L572.88,0.162L579.39,0.405L585.9,0.339L592.41,0.396L598.92,0.368L605.43,0.335L611.94,0.152L618.45,0.2L624.96,0.271L631.47,0.124L637.98,0.349L644.49,0.312L651,0.209" stroke="#0068c9" stroke-width="2"/></g></g><path class="foreground" aria-hidden="true" d="" display="none"/></g><g transform="translate(0,0)"><path class="background" aria-hidden="true" d="M0,0h651v249h-651Z"/><g><g class="mark-line role-mark marks" clip-path="url(#clip3)" role="graphics-object" aria-roledescription="line mark container"><path aria-label="Epoch: 1; value: 0.132777038816;  : Label; label: Label" role="graphics-symbol" aria-roledescription="line mark" d="M6.51,215.939L13.02,202.288L19.53,192.854L26.04,184.952L32.55,178.281L39.06,169.884L45.57,164.898L52.08,157.487L58.59,151.683L65.1,145.199L71.61,138.151L78.12,132.993L84.63,127.649L91.14,121.476L97.65,115.642L104.16,110.82L110.67,103.427L117.18,100.332L123.69,94.446L130.2,88.81L136.71,85.415L143.22,80.416L149.73,77.095L156.24,72.031L162.75,69.084L169.26,64.797L175.77,60.522L182.28,57.637L188.79,56.25L195.3,53.626L201.81,50.501L208.32,47.539L214.83,46.813L221.34,43.507L227.85,41.141L234.36,39.508L240.87,37.387L247.38,34.733L253.89,35.233L260.4,32.828L266.91,32.363L273.42,29.77L279.93,27.923L286.44,29.296L292.95,26.159L299.46,26.981L305.97,24.694L312.48,24.654L318.99,25.737L325.5,22.898L332.01,22.314L338.52,22.009L345.03,21.23L351.54,20.956L358.05,21.838L364.56,18.578L371.07,19.665L377.58,18.009L384.09,18.113L390.6,18.619L397.11,18.787L403.62,16.538L410.13,16.563L416.64,15.669L423.15,17.005L429.66,17.066L436.17,16.005L442.68,15.618L449.19,15.109L455.7,15.152L462.21,14.691L468.72,14.813L475.23,13.497L481.74,14.531L488.25,13.988L494.76,13.915L501.27,13.063L507.78,13.406L514.29,13.278L520.8,14.123L527.31,13.48L533.82,12.644L540.33,12.853L546.84,11.767L553.35,13.143L559.86,11.87L566.37,11.42L572.88,10.87L579.39,12.456L585.9,10.624L592.41,11.743L598.92,10.777L605.43,11.062L611.94,10.294L618.45,10.48L624.96,10.939L631.47,10.714L637.98,10.835L644.49,10.087L651,9.891" stroke="#83c9ff" stroke-width="2"/></g></g><path class="foreground" aria-hidden="true" d="" display="none"/></g><g transform="translate(0,0)"><path class="background" aria-hidden="true" d="M0,0h651v249h-651Z"/><g><g class="mark-line role-mark marks" clip-path="url(#clip4)" role="graphics-object" aria-roledescription="line mark container"><path aria-label="Epoch: 1; value: 0.144770959378;  : Root; label: Root" role="graphics-symbol" aria-roledescription="line mark" d="M6.51,212.952L13.02,180.993L19.53,148.281L26.04,131.71L32.55,115.676L39.06,101.15L45.57,90.604L52.08,79.198L58.59,70.267L65.1,60.152L71.61,53.05L78.12,46.163L84.63,40.245L91.14,33.358L97.65,30.237L104.16,24.534L110.67,23.458L117.18,20.122L123.69,18.185L130.2,20.553L136.71,16.033L143.22,14.957L149.73,15.71L156.24,11.837L162.75,13.558L169.26,11.406L175.77,8.824L182.28,7.963L188.79,9.9L195.3,10.223L201.81,8.608L208.32,9.039L214.83,8.07L221.34,9.039L227.85,6.456L234.36,7.532L240.87,5.165L247.38,7.317L253.89,5.273L260.4,5.596L266.91,6.026L273.42,7.64L279.93,6.456L286.44,5.703L292.95,5.165L299.46,5.918L305.97,3.228L312.48,5.811L318.99,5.057L325.5,5.596L332.01,4.95L338.52,5.165L345.03,5.918L351.54,4.304L358.05,5.596L364.56,3.443L371.07,5.165L377.58,3.766L384.09,4.627L390.6,4.304L397.11,4.197L403.62,4.735L410.13,3.766L416.64,4.735L423.15,3.121L429.66,3.981L436.17,3.766L442.68,5.38L449.19,5.165L455.7,3.874L462.21,4.197L468.72,3.981L475.23,3.874L481.74,3.981L488.25,3.551L494.76,6.349L501.27,4.519L507.78,1.937L514.29,4.627L520.8,3.766L527.31,2.152L533.82,4.95L540.33,3.551L546.84,3.336L553.35,3.443L559.86,4.95L566.37,2.583L572.88,2.798L579.39,2.905L585.9,3.013L592.41,3.121L598.92,3.443L605.43,3.336L611.94,3.336L618.45,3.013L624.96,2.905L631.47,3.336L637.98,2.69L644.49,3.766L651,1.291" stroke="#ff2b2b" stroke-width="2"/></g></g><path class="foreground" aria-hidden="true" d="" display="none"/></g></g><g class="mark-group role-legend" role="graphics-symbol" aria-roledescription="legend" aria-label="Symbol legend titled ' ' for stroke color with 4 values: Bond, Label, Root, Topo"><g transform="translate(0,286)"><path class="background" aria-hidden="true" d="M0,0h239v42h-239Z" pointer-events="none"/><g><g class="mark-group role-legend-entry"><g transform="translate(7,21)"><path class="background" aria-hidden="true" d="M0,0h0v0h0Z" pointer-events="none"/><g><g class="mark-group role-scope" role="graphics-object" aria-roledescription="group mark container"><g transform="translate(0,0)"><path class="background" aria-hidden="true" d="M0,0h49.24787902832031v14h-49.24787902832031Z" pointer-events="none" opacity="1"/><g><g class="mark-symbol role-legend-symbol" pointer-events="none"><path transform="translate(7,7)" d="M-5,0L5,0" stroke="#0068c9" stroke-width="4" opacity="1"/></g><g class="mark-text role-legend-label" pointer-events="none"><text text-anchor="start" transform="translate(18,11)" font-family="&quot;Source Sans Pro&quot;, sans-serif" font-size="14px" font-weight="400" fill="#808495" opacity="1">Bond</text></g></g><path class="foreground" aria-hidden="true" d="" pointer-events="none" display="none"/></g><g transform="translate(60,0)"><path class="background" aria-hidden="true" d="M0,0h50.115875244140625v14h-50.115875244140625Z" pointer-events="none" opacity="1"/><g><g class="mark-symbol role-legend-symbol" pointer-events="none"><path transform="translate(7,7)" d="M-5,0L5,0" stroke="#83c9ff" stroke-width="4" opacity="1"/></g><g class="mark-text role-legend-label" pointer-events="none"><text text-anchor="start" transform="translate(18,11)" font-family="&quot;Source Sans Pro&quot;, sans-serif" font-size="14px" font-weight="400" fill="#808495" opacity="1">Label</text></g></g><path class="foreground" aria-hidden="true" d="" pointer-events="none" display="none"/></g><g transform="translate(121,0)"><path class="background" aria-hidden="true" d="M0,0h45.495880126953125v14h-45.495880126953125Z" pointer-events="none" opacity="1"/><g><g class="mark-symbol role-legend-symbol" pointer-events="none"><path transform="translate(7,7)" d="M-5,0L5,0" stroke="#ff2b2b" stroke-width="4" opacity="1"/></g><g class="mark-text role-legend-label" pointer-events="none"><text text-anchor="start" transform="translate(18,11)" font-family="&quot;Source Sans Pro&quot;, sans-serif" font-size="14px" font-weight="400" fill="#808495" opacity="1">Root</text></g></g><path class="foreground" aria-hidden="true" d="" pointer-events="none" display="none"/></g><g transform="translate(177,0)"><path class="background" aria-hidden="true" d="M0,0h47.52587890625v14h-47.52587890625Z" pointer-events="none" opacity="1"/><g><g class="mark-symbol role-legend-symbol" pointer-events="none"><path transform="translate(7,7)" d="M-5,0L5,0" stroke="#ffabab" stroke-width="4" opacity="1"/></g><g class="mark-text role-legend-label" pointer-events="none"><text text-anchor="start" transform="translate(18,11)" font-family="&quot;Source Sans Pro&quot;, sans-serif" font-size="14px" font-weight="400" fill="#808495" opacity="1">Topo</text></g></g><path class="foreground" aria-hidden="true" d="" pointer-events="none" display="none"/></g></g></g><path class="foreground" aria-hidden="true" d="" pointer-events="none" display="none"/></g></g><g class="mark-text role-legend-title" pointer-events="none"><text text-anchor="start" transform="translate(7,18)" font-family="&quot;Source Sans Pro&quot;, sans-serif" font-size="14px" font-style="normal" font-weight="400" fill="#808495" opacity="1"/></g></g><path class="foreground" aria-hidden="true" d="" pointer-events="none" display="none"/></g></g></g><path class="foreground" aria-hidden="true" d="" display="none"/></g></g></g><defs><clipPath id="clip1"><rect x="0" y="0" width="651" height="249"/></clipPath><clipPath id="clip2"><rect x="0" y="0" width="651" height="249"/></clipPath><clipPath id="clip3"><rect x="0" y="0" width="651" height="249"/></clipPath><clipPath id="clip4"><rect x="0" y="0" width="651" height="249"/></clipPath></defs></svg>